<mxfile host="app.diagrams.net" agent="Mozilla/5.0 (Windows NT 10.0; Win64; x64) AppleWebKit/537.36 (KHTML, like Gecko) Chrome/129.0.0.0 Safari/537.36" version="24.7.17">
  <diagram name="Страница — 1" id="KoJquYWVteWFzIXME-7o">
    <mxGraphModel dx="3240" dy="2330" grid="1" gridSize="10" guides="1" tooltips="1" connect="1" arrows="1" fold="1" page="1" pageScale="1" pageWidth="850" pageHeight="1100" math="0" shadow="0">
      <root>
        <mxCell id="0" />
        <mxCell id="1" parent="0" />
        <mxCell id="YmsPEhmeXx43-MYh7PNv-251" style="edgeStyle=orthogonalEdgeStyle;rounded=0;orthogonalLoop=1;jettySize=auto;html=1;endArrow=none;endFill=0;dashed=1;startArrow=block;startFill=0;" parent="1" source="Au5Fy73LcGvytUm_-_bz-95" target="YmsPEhmeXx43-MYh7PNv-39" edge="1">
          <mxGeometry relative="1" as="geometry">
            <Array as="points">
              <mxPoint x="884" y="91" />
              <mxPoint x="774" y="91" />
            </Array>
          </mxGeometry>
        </mxCell>
        <mxCell id="YmsPEhmeXx43-MYh7PNv-1" value="&amp;lt;&amp;lt;entity&amp;gt;&amp;gt;&lt;br&gt;&lt;b&gt;User&lt;/b&gt;&lt;div&gt;&lt;br&gt;&lt;/div&gt;" style="swimlane;fontStyle=0;align=center;verticalAlign=top;childLayout=stackLayout;horizontal=1;startSize=42;horizontalStack=0;resizeParent=1;resizeParentMax=0;resizeLast=0;collapsible=0;marginBottom=0;html=1;whiteSpace=wrap;" parent="1" vertex="1">
          <mxGeometry x="800" y="-510" width="167" height="154" as="geometry" />
        </mxCell>
        <mxCell id="YmsPEhmeXx43-MYh7PNv-2" value="&lt;div&gt;- login; String&lt;/div&gt;" style="text;html=1;strokeColor=none;fillColor=none;align=left;verticalAlign=middle;spacingLeft=4;spacingRight=4;overflow=hidden;rotatable=0;points=[[0,0.5],[1,0.5]];portConstraint=eastwest;whiteSpace=wrap;" parent="YmsPEhmeXx43-MYh7PNv-1" vertex="1">
          <mxGeometry y="42" width="167" height="20" as="geometry" />
        </mxCell>
        <mxCell id="YmsPEhmeXx43-MYh7PNv-3" value="- user ID; UUID" style="text;html=1;strokeColor=none;fillColor=none;align=left;verticalAlign=middle;spacingLeft=4;spacingRight=4;overflow=hidden;rotatable=0;points=[[0,0.5],[1,0.5]];portConstraint=eastwest;whiteSpace=wrap;" parent="YmsPEhmeXx43-MYh7PNv-1" vertex="1">
          <mxGeometry y="62" width="167" height="20" as="geometry" />
        </mxCell>
        <mxCell id="YmsPEhmeXx43-MYh7PNv-4" value="&lt;div&gt;- token; String&lt;/div&gt;" style="text;html=1;strokeColor=none;fillColor=none;align=left;verticalAlign=middle;spacingLeft=4;spacingRight=4;overflow=hidden;rotatable=0;points=[[0,0.5],[1,0.5]];portConstraint=eastwest;whiteSpace=wrap;" parent="YmsPEhmeXx43-MYh7PNv-1" vertex="1">
          <mxGeometry y="82" width="167" height="25" as="geometry" />
        </mxCell>
        <mxCell id="YmsPEhmeXx43-MYh7PNv-5" value="&lt;div&gt;- permission; List&amp;lt;Permissions&amp;gt;&lt;/div&gt;" style="text;html=1;strokeColor=none;fillColor=none;align=left;verticalAlign=middle;spacingLeft=4;spacingRight=4;overflow=hidden;rotatable=0;points=[[0,0.5],[1,0.5]];portConstraint=eastwest;whiteSpace=wrap;" parent="YmsPEhmeXx43-MYh7PNv-1" vertex="1">
          <mxGeometry y="107" width="167" height="39" as="geometry" />
        </mxCell>
        <mxCell id="YmsPEhmeXx43-MYh7PNv-6" value="" style="line;strokeWidth=1;fillColor=none;align=left;verticalAlign=middle;spacingTop=-1;spacingLeft=3;spacingRight=3;rotatable=0;labelPosition=right;points=[];portConstraint=eastwest;" parent="YmsPEhmeXx43-MYh7PNv-1" vertex="1">
          <mxGeometry y="146" width="167" height="8" as="geometry" />
        </mxCell>
        <mxCell id="YmsPEhmeXx43-MYh7PNv-16" value="&amp;lt;&amp;lt;entity&amp;gt;&amp;gt;&lt;br&gt;&lt;b&gt;Admin&lt;/b&gt;&lt;br&gt;&lt;div&gt;&lt;br&gt;&lt;/div&gt;" style="swimlane;fontStyle=0;align=center;verticalAlign=top;childLayout=stackLayout;horizontal=1;startSize=42;horizontalStack=0;resizeParent=1;resizeParentMax=0;resizeLast=0;collapsible=0;marginBottom=0;html=1;whiteSpace=wrap;" parent="1" vertex="1">
          <mxGeometry x="1589" y="-306" width="140" height="115" as="geometry" />
        </mxCell>
        <mxCell id="YmsPEhmeXx43-MYh7PNv-17" value="&lt;div&gt;- Login; String&lt;/div&gt;" style="text;html=1;strokeColor=none;fillColor=none;align=left;verticalAlign=middle;spacingLeft=4;spacingRight=4;overflow=hidden;rotatable=0;points=[[0,0.5],[1,0.5]];portConstraint=eastwest;whiteSpace=wrap;" parent="YmsPEhmeXx43-MYh7PNv-16" vertex="1">
          <mxGeometry y="42" width="140" height="20" as="geometry" />
        </mxCell>
        <mxCell id="YmsPEhmeXx43-MYh7PNv-18" value="- User ID; UUID&lt;div&gt;&lt;br&gt;&lt;/div&gt;" style="text;html=1;strokeColor=none;fillColor=none;align=left;verticalAlign=middle;spacingLeft=4;spacingRight=4;overflow=hidden;rotatable=0;points=[[0,0.5],[1,0.5]];portConstraint=eastwest;whiteSpace=wrap;" parent="YmsPEhmeXx43-MYh7PNv-16" vertex="1">
          <mxGeometry y="62" width="140" height="20" as="geometry" />
        </mxCell>
        <mxCell id="YmsPEhmeXx43-MYh7PNv-19" value="&lt;div&gt;- Token; String&lt;/div&gt;" style="text;html=1;strokeColor=none;fillColor=none;align=left;verticalAlign=middle;spacingLeft=4;spacingRight=4;overflow=hidden;rotatable=0;points=[[0,0.5],[1,0.5]];portConstraint=eastwest;whiteSpace=wrap;" parent="YmsPEhmeXx43-MYh7PNv-16" vertex="1">
          <mxGeometry y="82" width="140" height="25" as="geometry" />
        </mxCell>
        <mxCell id="YmsPEhmeXx43-MYh7PNv-21" value="" style="line;strokeWidth=1;fillColor=none;align=left;verticalAlign=middle;spacingTop=-1;spacingLeft=3;spacingRight=3;rotatable=0;labelPosition=right;points=[];portConstraint=eastwest;" parent="YmsPEhmeXx43-MYh7PNv-16" vertex="1">
          <mxGeometry y="107" width="140" height="8" as="geometry" />
        </mxCell>
        <mxCell id="YmsPEhmeXx43-MYh7PNv-310" style="edgeStyle=orthogonalEdgeStyle;rounded=0;orthogonalLoop=1;jettySize=auto;html=1;entryX=0;entryY=0.5;entryDx=0;entryDy=0;dashed=1;endArrow=block;endFill=0;" edge="1" parent="1" source="YmsPEhmeXx43-MYh7PNv-31" target="YmsPEhmeXx43-MYh7PNv-303">
          <mxGeometry relative="1" as="geometry" />
        </mxCell>
        <mxCell id="YmsPEhmeXx43-MYh7PNv-31" value="&amp;lt;&amp;lt;root&amp;gt;&amp;gt;&lt;br&gt;&lt;b&gt;Registration Service Controller&lt;/b&gt;&lt;br&gt;&lt;div&gt;&lt;br&gt;&lt;/div&gt;" style="swimlane;fontStyle=0;align=center;verticalAlign=top;childLayout=stackLayout;horizontal=1;startSize=42;horizontalStack=0;resizeParent=1;resizeParentMax=0;resizeLast=0;collapsible=0;marginBottom=0;html=1;whiteSpace=wrap;" parent="1" vertex="1">
          <mxGeometry x="1334" y="180" width="268" height="90" as="geometry" />
        </mxCell>
        <mxCell id="YmsPEhmeXx43-MYh7PNv-33" value="- registrationService: Registration Service" style="text;html=1;strokeColor=none;fillColor=none;align=left;verticalAlign=middle;spacingLeft=4;spacingRight=4;overflow=hidden;rotatable=0;points=[[0,0.5],[1,0.5]];portConstraint=eastwest;whiteSpace=wrap;" parent="YmsPEhmeXx43-MYh7PNv-31" vertex="1">
          <mxGeometry y="42" width="268" height="20" as="geometry" />
        </mxCell>
        <mxCell id="YmsPEhmeXx43-MYh7PNv-35" value="" style="line;strokeWidth=1;fillColor=none;align=left;verticalAlign=middle;spacingTop=-1;spacingLeft=3;spacingRight=3;rotatable=0;labelPosition=right;points=[];portConstraint=eastwest;" parent="YmsPEhmeXx43-MYh7PNv-31" vertex="1">
          <mxGeometry y="62" width="268" height="8" as="geometry" />
        </mxCell>
        <mxCell id="YmsPEhmeXx43-MYh7PNv-37" value="&lt;span style=&quot;text-align: center; background-color: initial;&quot;&gt;+ createAccount()&lt;/span&gt;" style="text;html=1;strokeColor=none;fillColor=none;align=left;verticalAlign=middle;spacingLeft=4;spacingRight=4;overflow=hidden;rotatable=0;points=[[0,0.5],[1,0.5]];portConstraint=eastwest;whiteSpace=wrap;" parent="YmsPEhmeXx43-MYh7PNv-31" vertex="1">
          <mxGeometry y="70" width="268" height="20" as="geometry" />
        </mxCell>
        <mxCell id="YmsPEhmeXx43-MYh7PNv-39" value="&amp;lt;&amp;lt;root&amp;gt;&amp;gt;&lt;br&gt;&lt;b&gt;Access Service Controller&lt;/b&gt;&lt;br&gt;&lt;div&gt;&lt;br&gt;&lt;/div&gt;" style="swimlane;fontStyle=0;align=center;verticalAlign=top;childLayout=stackLayout;horizontal=1;startSize=42;horizontalStack=0;resizeParent=1;resizeParentMax=0;resizeLast=0;collapsible=0;marginBottom=0;html=1;whiteSpace=wrap;" parent="1" vertex="1">
          <mxGeometry x="676" y="129" width="188" height="230" as="geometry" />
        </mxCell>
        <mxCell id="EXTOjlWWLpiQbBm8Di9F-18" value="- accessService: Access Service" style="text;html=1;strokeColor=none;fillColor=none;align=left;verticalAlign=middle;spacingLeft=4;spacingRight=4;overflow=hidden;rotatable=0;points=[[0,0.5],[1,0.5]];portConstraint=eastwest;whiteSpace=wrap;" parent="YmsPEhmeXx43-MYh7PNv-39" vertex="1">
          <mxGeometry y="42" width="188" height="20" as="geometry" />
        </mxCell>
        <mxCell id="YmsPEhmeXx43-MYh7PNv-41" value="" style="line;strokeWidth=1;fillColor=none;align=left;verticalAlign=middle;spacingTop=-1;spacingLeft=3;spacingRight=3;rotatable=0;labelPosition=right;points=[];portConstraint=eastwest;" parent="YmsPEhmeXx43-MYh7PNv-39" vertex="1">
          <mxGeometry y="62" width="188" height="8" as="geometry" />
        </mxCell>
        <mxCell id="YmsPEhmeXx43-MYh7PNv-51" value="+ sendAuthToken&lt;span style=&quot;font-family: Arial, sans-serif; font-size: 14.6667px; white-space-collapse: preserve;&quot;&gt;()&lt;/span&gt;" style="text;html=1;strokeColor=none;fillColor=none;align=left;verticalAlign=middle;spacingLeft=4;spacingRight=4;overflow=hidden;rotatable=0;points=[[0,0.5],[1,0.5]];portConstraint=eastwest;whiteSpace=wrap;" parent="YmsPEhmeXx43-MYh7PNv-39" vertex="1">
          <mxGeometry y="70" width="188" height="20" as="geometry" />
        </mxCell>
        <mxCell id="YmsPEhmeXx43-MYh7PNv-42" value="&lt;font style=&quot;font-size: 12px;&quot;&gt;+&amp;nbsp;&lt;font style=&quot;font-size: 12px;&quot; face=&quot;Arial, sans-serif&quot;&gt;&lt;span style=&quot;white-space-collapse: preserve;&quot;&gt;sendConfigFIle()&lt;/span&gt;&lt;/font&gt;&lt;/font&gt;" style="text;html=1;strokeColor=none;fillColor=none;align=left;verticalAlign=middle;spacingLeft=4;spacingRight=4;overflow=hidden;rotatable=0;points=[[0,0.5],[1,0.5]];portConstraint=eastwest;whiteSpace=wrap;" parent="YmsPEhmeXx43-MYh7PNv-39" vertex="1">
          <mxGeometry y="90" width="188" height="20" as="geometry" />
        </mxCell>
        <mxCell id="YmsPEhmeXx43-MYh7PNv-53" value="&lt;font style=&quot;font-size: 12px;&quot;&gt;+&amp;nbsp;&lt;font style=&quot;font-size: 12px;&quot; face=&quot;Arial, sans-serif&quot;&gt;&lt;span style=&quot;white-space-collapse: preserve;&quot;&gt;sendDescriptionFIle()&lt;/span&gt;&lt;/font&gt;&lt;/font&gt;" style="text;html=1;strokeColor=none;fillColor=none;align=left;verticalAlign=middle;spacingLeft=4;spacingRight=4;overflow=hidden;rotatable=0;points=[[0,0.5],[1,0.5]];portConstraint=eastwest;whiteSpace=wrap;" parent="YmsPEhmeXx43-MYh7PNv-39" vertex="1">
          <mxGeometry y="110" width="188" height="20" as="geometry" />
        </mxCell>
        <mxCell id="YmsPEhmeXx43-MYh7PNv-52" value="&lt;font style=&quot;font-size: 12px;&quot;&gt;+ sendCheckStatus&lt;font style=&quot;font-size: 12px;&quot; face=&quot;Arial, sans-serif&quot;&gt;&lt;span style=&quot;white-space-collapse: preserve;&quot;&gt;()&lt;/span&gt;&lt;/font&gt;&lt;/font&gt;" style="text;html=1;strokeColor=none;fillColor=none;align=left;verticalAlign=middle;spacingLeft=4;spacingRight=4;overflow=hidden;rotatable=0;points=[[0,0.5],[1,0.5]];portConstraint=eastwest;whiteSpace=wrap;" parent="YmsPEhmeXx43-MYh7PNv-39" vertex="1">
          <mxGeometry y="130" width="188" height="20" as="geometry" />
        </mxCell>
        <mxCell id="YmsPEhmeXx43-MYh7PNv-54" value="&lt;font style=&quot;font-size: 12px;&quot;&gt;+ modifyPermissions&lt;font style=&quot;font-size: 12px;&quot; face=&quot;Arial, sans-serif&quot;&gt;&lt;span style=&quot;white-space-collapse: preserve;&quot;&gt;()&lt;/span&gt;&lt;/font&gt;&lt;/font&gt;" style="text;html=1;strokeColor=none;fillColor=none;align=left;verticalAlign=middle;spacingLeft=4;spacingRight=4;overflow=hidden;rotatable=0;points=[[0,0.5],[1,0.5]];portConstraint=eastwest;whiteSpace=wrap;" parent="YmsPEhmeXx43-MYh7PNv-39" vertex="1">
          <mxGeometry y="150" width="188" height="20" as="geometry" />
        </mxCell>
        <mxCell id="YmsPEhmeXx43-MYh7PNv-55" value="&lt;font style=&quot;font-size: 12px;&quot;&gt;+ returnAllPermissions&lt;font style=&quot;font-size: 12px;&quot; face=&quot;Arial, sans-serif&quot;&gt;&lt;span style=&quot;white-space-collapse: preserve;&quot;&gt;()&lt;/span&gt;&lt;/font&gt;&lt;/font&gt;" style="text;html=1;strokeColor=none;fillColor=none;align=left;verticalAlign=middle;spacingLeft=4;spacingRight=4;overflow=hidden;rotatable=0;points=[[0,0.5],[1,0.5]];portConstraint=eastwest;whiteSpace=wrap;" parent="YmsPEhmeXx43-MYh7PNv-39" vertex="1">
          <mxGeometry y="170" width="188" height="20" as="geometry" />
        </mxCell>
        <mxCell id="YmsPEhmeXx43-MYh7PNv-56" value="&lt;font style=&quot;font-size: 12px;&quot;&gt;+ returnAccountPermissions&lt;font style=&quot;font-size: 12px;&quot; face=&quot;Arial, sans-serif&quot;&gt;&lt;span style=&quot;white-space-collapse: preserve;&quot;&gt;()&lt;/span&gt;&lt;/font&gt;&lt;/font&gt;" style="text;html=1;strokeColor=none;fillColor=none;align=left;verticalAlign=middle;spacingLeft=4;spacingRight=4;overflow=hidden;rotatable=0;points=[[0,0.5],[1,0.5]];portConstraint=eastwest;whiteSpace=wrap;" parent="YmsPEhmeXx43-MYh7PNv-39" vertex="1">
          <mxGeometry y="190" width="188" height="20" as="geometry" />
        </mxCell>
        <mxCell id="YmsPEhmeXx43-MYh7PNv-57" value="&lt;font style=&quot;font-size: 12px;&quot;&gt;+ returnAllAccounts&lt;font style=&quot;font-size: 12px;&quot; face=&quot;Arial, sans-serif&quot;&gt;&lt;span style=&quot;white-space-collapse: preserve;&quot;&gt;()&lt;/span&gt;&lt;/font&gt;&lt;/font&gt;" style="text;html=1;strokeColor=none;fillColor=none;align=left;verticalAlign=middle;spacingLeft=4;spacingRight=4;overflow=hidden;rotatable=0;points=[[0,0.5],[1,0.5]];portConstraint=eastwest;whiteSpace=wrap;" parent="YmsPEhmeXx43-MYh7PNv-39" vertex="1">
          <mxGeometry y="210" width="188" height="20" as="geometry" />
        </mxCell>
        <mxCell id="YmsPEhmeXx43-MYh7PNv-316" style="edgeStyle=orthogonalEdgeStyle;rounded=0;orthogonalLoop=1;jettySize=auto;html=1;endArrow=diamondThin;endFill=1;" edge="1" parent="1" source="YmsPEhmeXx43-MYh7PNv-62" target="YmsPEhmeXx43-MYh7PNv-31">
          <mxGeometry relative="1" as="geometry" />
        </mxCell>
        <mxCell id="Au5Fy73LcGvytUm_-_bz-157" value="1" style="edgeLabel;html=1;align=center;verticalAlign=middle;resizable=0;points=[];" vertex="1" connectable="0" parent="YmsPEhmeXx43-MYh7PNv-316">
          <mxGeometry x="0.6673" y="-1" relative="1" as="geometry">
            <mxPoint x="11" y="-1" as="offset" />
          </mxGeometry>
        </mxCell>
        <mxCell id="Au5Fy73LcGvytUm_-_bz-158" value="1" style="edgeLabel;html=1;align=center;verticalAlign=middle;resizable=0;points=[];" vertex="1" connectable="0" parent="YmsPEhmeXx43-MYh7PNv-316">
          <mxGeometry x="-0.5479" y="1" relative="1" as="geometry">
            <mxPoint x="13" as="offset" />
          </mxGeometry>
        </mxCell>
        <mxCell id="YmsPEhmeXx43-MYh7PNv-62" value="&amp;lt;&amp;lt;service&amp;gt;&amp;gt;&lt;br&gt;&lt;b&gt;Registration Service&lt;/b&gt;&lt;br&gt;&lt;div&gt;&lt;br&gt;&lt;/div&gt;" style="swimlane;fontStyle=0;align=center;verticalAlign=top;childLayout=stackLayout;horizontal=1;startSize=42;horizontalStack=0;resizeParent=1;resizeParentMax=0;resizeLast=0;collapsible=0;marginBottom=0;html=1;whiteSpace=wrap;" parent="1" vertex="1">
          <mxGeometry x="1334" y="349" width="268" height="110" as="geometry" />
        </mxCell>
        <mxCell id="YmsPEhmeXx43-MYh7PNv-64" value="" style="line;strokeWidth=1;fillColor=none;align=left;verticalAlign=middle;spacingTop=-1;spacingLeft=3;spacingRight=3;rotatable=0;labelPosition=right;points=[];portConstraint=eastwest;" parent="YmsPEhmeXx43-MYh7PNv-62" vertex="1">
          <mxGeometry y="42" width="268" height="8" as="geometry" />
        </mxCell>
        <mxCell id="YmsPEhmeXx43-MYh7PNv-65" value="&lt;span style=&quot;text-align: center; background-color: initial;&quot;&gt;+ generateToken&lt;/span&gt;&lt;span style=&quot;text-align: center; white-space-collapse: preserve; background-color: initial; font-family: Arial, sans-serif; font-size: 14.6667px;&quot;&gt;()&lt;/span&gt;" style="text;html=1;strokeColor=none;fillColor=none;align=left;verticalAlign=middle;spacingLeft=4;spacingRight=4;overflow=hidden;rotatable=0;points=[[0,0.5],[1,0.5]];portConstraint=eastwest;whiteSpace=wrap;" parent="YmsPEhmeXx43-MYh7PNv-62" vertex="1">
          <mxGeometry y="50" width="268" height="20" as="geometry" />
        </mxCell>
        <mxCell id="YmsPEhmeXx43-MYh7PNv-66" value="&lt;div style=&quot;text-align: center;&quot;&gt;&lt;span style=&quot;background-color: initial;&quot;&gt;+ insertNewAccount&lt;/span&gt;&lt;span style=&quot;background-color: initial; white-space-collapse: preserve; font-family: Arial, sans-serif; font-size: 14.6667px;&quot;&gt;()&lt;/span&gt;&lt;/div&gt;" style="text;html=1;strokeColor=none;fillColor=none;align=left;verticalAlign=middle;spacingLeft=4;spacingRight=4;overflow=hidden;rotatable=0;points=[[0,0.5],[1,0.5]];portConstraint=eastwest;whiteSpace=wrap;" parent="YmsPEhmeXx43-MYh7PNv-62" vertex="1">
          <mxGeometry y="70" width="268" height="20" as="geometry" />
        </mxCell>
        <mxCell id="YmsPEhmeXx43-MYh7PNv-67" value="&lt;div style=&quot;text-align: center;&quot;&gt;&lt;span style=&quot;background-color: initial;&quot;&gt;+ getCreationStatus&lt;/span&gt;&lt;span style=&quot;background-color: initial; white-space-collapse: preserve; font-family: Arial, sans-serif; font-size: 14.6667px;&quot;&gt;()&lt;/span&gt;&lt;/div&gt;" style="text;html=1;strokeColor=none;fillColor=none;align=left;verticalAlign=middle;spacingLeft=4;spacingRight=4;overflow=hidden;rotatable=0;points=[[0,0.5],[1,0.5]];portConstraint=eastwest;whiteSpace=wrap;" parent="YmsPEhmeXx43-MYh7PNv-62" vertex="1">
          <mxGeometry y="90" width="268" height="20" as="geometry" />
        </mxCell>
        <mxCell id="YmsPEhmeXx43-MYh7PNv-68" value="&amp;lt;&amp;lt;entity&amp;gt;&amp;gt;&lt;br&gt;&lt;div&gt;&lt;b&gt;DataBase&lt;/b&gt;&lt;/div&gt;" style="swimlane;fontStyle=0;align=center;verticalAlign=top;childLayout=stackLayout;horizontal=1;startSize=42;horizontalStack=0;resizeParent=1;resizeParentMax=0;resizeLast=0;collapsible=0;marginBottom=0;html=1;whiteSpace=wrap;" parent="1" vertex="1">
          <mxGeometry x="1064" y="535" width="268" height="210" as="geometry" />
        </mxCell>
        <mxCell id="YmsPEhmeXx43-MYh7PNv-69" value="- Account: Table" style="text;html=1;strokeColor=none;fillColor=none;align=left;verticalAlign=middle;spacingLeft=4;spacingRight=4;overflow=hidden;rotatable=0;points=[[0,0.5],[1,0.5]];portConstraint=eastwest;whiteSpace=wrap;" parent="YmsPEhmeXx43-MYh7PNv-68" vertex="1">
          <mxGeometry y="42" width="268" height="20" as="geometry" />
        </mxCell>
        <mxCell id="YmsPEhmeXx43-MYh7PNv-72" value="- Permission: Table" style="text;html=1;strokeColor=none;fillColor=none;align=left;verticalAlign=middle;spacingLeft=4;spacingRight=4;overflow=hidden;rotatable=0;points=[[0,0.5],[1,0.5]];portConstraint=eastwest;whiteSpace=wrap;" parent="YmsPEhmeXx43-MYh7PNv-68" vertex="1">
          <mxGeometry y="62" width="268" height="20" as="geometry" />
        </mxCell>
        <mxCell id="YmsPEhmeXx43-MYh7PNv-83" value="- Runs: Table" style="text;html=1;strokeColor=none;fillColor=none;align=left;verticalAlign=middle;spacingLeft=4;spacingRight=4;overflow=hidden;rotatable=0;points=[[0,0.5],[1,0.5]];portConstraint=eastwest;whiteSpace=wrap;" parent="YmsPEhmeXx43-MYh7PNv-68" vertex="1">
          <mxGeometry y="82" width="268" height="20" as="geometry" />
        </mxCell>
        <mxCell id="YmsPEhmeXx43-MYh7PNv-84" value="- Extraction Runs: Table" style="text;html=1;strokeColor=none;fillColor=none;align=left;verticalAlign=middle;spacingLeft=4;spacingRight=4;overflow=hidden;rotatable=0;points=[[0,0.5],[1,0.5]];portConstraint=eastwest;whiteSpace=wrap;" parent="YmsPEhmeXx43-MYh7PNv-68" vertex="1">
          <mxGeometry y="102" width="268" height="20" as="geometry" />
        </mxCell>
        <mxCell id="YmsPEhmeXx43-MYh7PNv-85" value="- Cleansed Runs: Table" style="text;html=1;strokeColor=none;fillColor=none;align=left;verticalAlign=middle;spacingLeft=4;spacingRight=4;overflow=hidden;rotatable=0;points=[[0,0.5],[1,0.5]];portConstraint=eastwest;whiteSpace=wrap;" parent="YmsPEhmeXx43-MYh7PNv-68" vertex="1">
          <mxGeometry y="122" width="268" height="20" as="geometry" />
        </mxCell>
        <mxCell id="YmsPEhmeXx43-MYh7PNv-86" value="-&amp;nbsp; Anonymization Runs: Table" style="text;html=1;strokeColor=none;fillColor=none;align=left;verticalAlign=middle;spacingLeft=4;spacingRight=4;overflow=hidden;rotatable=0;points=[[0,0.5],[1,0.5]];portConstraint=eastwest;whiteSpace=wrap;" parent="YmsPEhmeXx43-MYh7PNv-68" vertex="1">
          <mxGeometry y="142" width="268" height="20" as="geometry" />
        </mxCell>
        <mxCell id="YmsPEhmeXx43-MYh7PNv-87" value="-&amp;nbsp; Transformation Runs: Table" style="text;html=1;strokeColor=none;fillColor=none;align=left;verticalAlign=middle;spacingLeft=4;spacingRight=4;overflow=hidden;rotatable=0;points=[[0,0.5],[1,0.5]];portConstraint=eastwest;whiteSpace=wrap;" parent="YmsPEhmeXx43-MYh7PNv-68" vertex="1">
          <mxGeometry y="162" width="268" height="20" as="geometry" />
        </mxCell>
        <mxCell id="YmsPEhmeXx43-MYh7PNv-88" value="-&amp;nbsp; Merge Runs: Table" style="text;html=1;strokeColor=none;fillColor=none;align=left;verticalAlign=middle;spacingLeft=4;spacingRight=4;overflow=hidden;rotatable=0;points=[[0,0.5],[1,0.5]];portConstraint=eastwest;whiteSpace=wrap;" parent="YmsPEhmeXx43-MYh7PNv-68" vertex="1">
          <mxGeometry y="182" width="268" height="20" as="geometry" />
        </mxCell>
        <mxCell id="YmsPEhmeXx43-MYh7PNv-70" value="" style="line;strokeWidth=1;fillColor=none;align=left;verticalAlign=middle;spacingTop=-1;spacingLeft=3;spacingRight=3;rotatable=0;labelPosition=right;points=[];portConstraint=eastwest;" parent="YmsPEhmeXx43-MYh7PNv-68" vertex="1">
          <mxGeometry y="202" width="268" height="8" as="geometry" />
        </mxCell>
        <mxCell id="YmsPEhmeXx43-MYh7PNv-309" style="edgeStyle=orthogonalEdgeStyle;rounded=0;orthogonalLoop=1;jettySize=auto;html=1;entryX=1;entryY=0.5;entryDx=0;entryDy=0;dashed=1;endArrow=block;endFill=0;" edge="1" parent="1" source="YmsPEhmeXx43-MYh7PNv-73" target="YmsPEhmeXx43-MYh7PNv-303">
          <mxGeometry relative="1" as="geometry">
            <Array as="points">
              <mxPoint x="1883" y="-36" />
            </Array>
          </mxGeometry>
        </mxCell>
        <mxCell id="YmsPEhmeXx43-MYh7PNv-73" value="&amp;lt;&amp;lt;root&amp;gt;&amp;gt;&lt;br&gt;&lt;b&gt;Report Service Controller&lt;/b&gt;&lt;br&gt;&lt;div&gt;&lt;br&gt;&lt;/div&gt;" style="swimlane;fontStyle=0;align=center;verticalAlign=top;childLayout=stackLayout;horizontal=1;startSize=42;horizontalStack=0;resizeParent=1;resizeParentMax=0;resizeLast=0;collapsible=0;marginBottom=0;html=1;whiteSpace=wrap;" parent="1" vertex="1">
          <mxGeometry x="1735" y="180" width="268" height="90" as="geometry" />
        </mxCell>
        <mxCell id="YmsPEhmeXx43-MYh7PNv-74" value="- reportService: Report Service" style="text;html=1;strokeColor=none;fillColor=none;align=left;verticalAlign=middle;spacingLeft=4;spacingRight=4;overflow=hidden;rotatable=0;points=[[0,0.5],[1,0.5]];portConstraint=eastwest;whiteSpace=wrap;" parent="YmsPEhmeXx43-MYh7PNv-73" vertex="1">
          <mxGeometry y="42" width="268" height="20" as="geometry" />
        </mxCell>
        <mxCell id="YmsPEhmeXx43-MYh7PNv-75" value="" style="line;strokeWidth=1;fillColor=none;align=left;verticalAlign=middle;spacingTop=-1;spacingLeft=3;spacingRight=3;rotatable=0;labelPosition=right;points=[];portConstraint=eastwest;" parent="YmsPEhmeXx43-MYh7PNv-73" vertex="1">
          <mxGeometry y="62" width="268" height="8" as="geometry" />
        </mxCell>
        <mxCell id="YmsPEhmeXx43-MYh7PNv-76" value="&lt;span style=&quot;text-align: center; background-color: initial;&quot;&gt;+ returnReportOfRunETL()&lt;/span&gt;" style="text;html=1;strokeColor=none;fillColor=none;align=left;verticalAlign=middle;spacingLeft=4;spacingRight=4;overflow=hidden;rotatable=0;points=[[0,0.5],[1,0.5]];portConstraint=eastwest;whiteSpace=wrap;" parent="YmsPEhmeXx43-MYh7PNv-73" vertex="1">
          <mxGeometry y="70" width="268" height="20" as="geometry" />
        </mxCell>
        <mxCell id="YmsPEhmeXx43-MYh7PNv-237" style="edgeStyle=orthogonalEdgeStyle;rounded=0;orthogonalLoop=1;jettySize=auto;html=1;endArrow=none;endFill=0;" parent="1" source="YmsPEhmeXx43-MYh7PNv-77" target="YmsPEhmeXx43-MYh7PNv-68" edge="1">
          <mxGeometry relative="1" as="geometry">
            <Array as="points">
              <mxPoint x="1869" y="493" />
              <mxPoint x="1310" y="493" />
            </Array>
          </mxGeometry>
        </mxCell>
        <mxCell id="Au5Fy73LcGvytUm_-_bz-146" value="1" style="edgeLabel;html=1;align=center;verticalAlign=middle;resizable=0;points=[];" vertex="1" connectable="0" parent="YmsPEhmeXx43-MYh7PNv-237">
          <mxGeometry x="0.9592" y="-1" relative="1" as="geometry">
            <mxPoint x="-9" y="4" as="offset" />
          </mxGeometry>
        </mxCell>
        <mxCell id="Au5Fy73LcGvytUm_-_bz-156" value="1" style="edgeLabel;html=1;align=center;verticalAlign=middle;resizable=0;points=[];" vertex="1" connectable="0" parent="YmsPEhmeXx43-MYh7PNv-237">
          <mxGeometry x="-0.9695" y="-1" relative="1" as="geometry">
            <mxPoint x="12" as="offset" />
          </mxGeometry>
        </mxCell>
        <mxCell id="YmsPEhmeXx43-MYh7PNv-317" style="edgeStyle=orthogonalEdgeStyle;rounded=0;orthogonalLoop=1;jettySize=auto;html=1;endArrow=diamondThin;endFill=1;" edge="1" parent="1" source="YmsPEhmeXx43-MYh7PNv-77" target="YmsPEhmeXx43-MYh7PNv-73">
          <mxGeometry relative="1" as="geometry">
            <Array as="points">
              <mxPoint x="1870" y="280" />
              <mxPoint x="1870" y="280" />
            </Array>
          </mxGeometry>
        </mxCell>
        <mxCell id="Au5Fy73LcGvytUm_-_bz-154" value="1" style="edgeLabel;html=1;align=center;verticalAlign=middle;resizable=0;points=[];" vertex="1" connectable="0" parent="YmsPEhmeXx43-MYh7PNv-317">
          <mxGeometry x="0.7047" y="-1" relative="1" as="geometry">
            <mxPoint x="9" y="2" as="offset" />
          </mxGeometry>
        </mxCell>
        <mxCell id="Au5Fy73LcGvytUm_-_bz-155" value="1" style="edgeLabel;html=1;align=center;verticalAlign=middle;resizable=0;points=[];" vertex="1" connectable="0" parent="YmsPEhmeXx43-MYh7PNv-317">
          <mxGeometry x="-0.6822" y="2" relative="1" as="geometry">
            <mxPoint x="12" as="offset" />
          </mxGeometry>
        </mxCell>
        <mxCell id="YmsPEhmeXx43-MYh7PNv-77" value="&amp;lt;&amp;lt;service&amp;gt;&amp;gt;&lt;br&gt;&lt;b&gt;Report Service&lt;/b&gt;&lt;br&gt;&lt;div&gt;&lt;br&gt;&lt;/div&gt;" style="swimlane;fontStyle=0;align=center;verticalAlign=top;childLayout=stackLayout;horizontal=1;startSize=42;horizontalStack=0;resizeParent=1;resizeParentMax=0;resizeLast=0;collapsible=0;marginBottom=0;html=1;whiteSpace=wrap;" parent="1" vertex="1">
          <mxGeometry x="1735" y="359" width="268" height="70" as="geometry" />
        </mxCell>
        <mxCell id="YmsPEhmeXx43-MYh7PNv-79" value="" style="line;strokeWidth=1;fillColor=none;align=left;verticalAlign=middle;spacingTop=-1;spacingLeft=3;spacingRight=3;rotatable=0;labelPosition=right;points=[];portConstraint=eastwest;" parent="YmsPEhmeXx43-MYh7PNv-77" vertex="1">
          <mxGeometry y="42" width="268" height="8" as="geometry" />
        </mxCell>
        <mxCell id="YmsPEhmeXx43-MYh7PNv-80" value="&lt;span style=&quot;text-align: center; background-color: initial;&quot;&gt;+ generateReportRunETL&lt;/span&gt;&lt;span style=&quot;text-align: center; white-space-collapse: preserve; background-color: initial; font-family: Arial, sans-serif; font-size: 14.6667px;&quot;&gt;()&lt;/span&gt;" style="text;html=1;strokeColor=none;fillColor=none;align=left;verticalAlign=middle;spacingLeft=4;spacingRight=4;overflow=hidden;rotatable=0;points=[[0,0.5],[1,0.5]];portConstraint=eastwest;whiteSpace=wrap;" parent="YmsPEhmeXx43-MYh7PNv-77" vertex="1">
          <mxGeometry y="50" width="268" height="20" as="geometry" />
        </mxCell>
        <mxCell id="YmsPEhmeXx43-MYh7PNv-232" style="edgeStyle=orthogonalEdgeStyle;rounded=0;orthogonalLoop=1;jettySize=auto;html=1;entryX=1;entryY=0.5;entryDx=0;entryDy=0;endArrow=diamond;endFill=1;" parent="1" source="YmsPEhmeXx43-MYh7PNv-89" target="YmsPEhmeXx43-MYh7PNv-69" edge="1">
          <mxGeometry relative="1" as="geometry" />
        </mxCell>
        <mxCell id="YmsPEhmeXx43-MYh7PNv-89" value="&amp;lt;&amp;lt;entity&amp;gt;&amp;gt;&lt;br&gt;&lt;div&gt;&lt;b&gt;Runs Table&lt;/b&gt;&lt;/div&gt;" style="swimlane;fontStyle=0;align=center;verticalAlign=top;childLayout=stackLayout;horizontal=1;startSize=42;horizontalStack=0;resizeParent=1;resizeParentMax=0;resizeLast=0;collapsible=0;marginBottom=0;html=1;whiteSpace=wrap;" parent="1" vertex="1">
          <mxGeometry x="1409" y="666" width="268" height="270" as="geometry" />
        </mxCell>
        <mxCell id="YmsPEhmeXx43-MYh7PNv-319" value="- jobRunID: UUID" style="text;html=1;strokeColor=none;fillColor=none;align=left;verticalAlign=middle;spacingLeft=4;spacingRight=4;overflow=hidden;rotatable=0;points=[[0,0.5],[1,0.5]];portConstraint=eastwest;whiteSpace=wrap;" vertex="1" parent="YmsPEhmeXx43-MYh7PNv-89">
          <mxGeometry y="42" width="268" height="20" as="geometry" />
        </mxCell>
        <mxCell id="YmsPEhmeXx43-MYh7PNv-93" value="- extractionRunID: UUID" style="text;html=1;strokeColor=none;fillColor=none;align=left;verticalAlign=middle;spacingLeft=4;spacingRight=4;overflow=hidden;rotatable=0;points=[[0,0.5],[1,0.5]];portConstraint=eastwest;whiteSpace=wrap;" parent="YmsPEhmeXx43-MYh7PNv-89" vertex="1">
          <mxGeometry y="62" width="268" height="20" as="geometry" />
        </mxCell>
        <mxCell id="YmsPEhmeXx43-MYh7PNv-99" value="- extractionRunIndicator: Boolean" style="text;html=1;strokeColor=none;fillColor=none;align=left;verticalAlign=middle;spacingLeft=4;spacingRight=4;overflow=hidden;rotatable=0;points=[[0,0.5],[1,0.5]];portConstraint=eastwest;whiteSpace=wrap;" parent="YmsPEhmeXx43-MYh7PNv-89" vertex="1">
          <mxGeometry y="82" width="268" height="20" as="geometry" />
        </mxCell>
        <mxCell id="YmsPEhmeXx43-MYh7PNv-94" value="- cleansedRunID: UUID" style="text;html=1;strokeColor=none;fillColor=none;align=left;verticalAlign=middle;spacingLeft=4;spacingRight=4;overflow=hidden;rotatable=0;points=[[0,0.5],[1,0.5]];portConstraint=eastwest;whiteSpace=wrap;" parent="YmsPEhmeXx43-MYh7PNv-89" vertex="1">
          <mxGeometry y="102" width="268" height="20" as="geometry" />
        </mxCell>
        <mxCell id="YmsPEhmeXx43-MYh7PNv-100" value="- cleansedRunIndicator: Boolean" style="text;html=1;strokeColor=none;fillColor=none;align=left;verticalAlign=middle;spacingLeft=4;spacingRight=4;overflow=hidden;rotatable=0;points=[[0,0.5],[1,0.5]];portConstraint=eastwest;whiteSpace=wrap;" parent="YmsPEhmeXx43-MYh7PNv-89" vertex="1">
          <mxGeometry y="122" width="268" height="20" as="geometry" />
        </mxCell>
        <mxCell id="YmsPEhmeXx43-MYh7PNv-95" value="-&amp;nbsp; anonymizationRunID: UUID" style="text;html=1;strokeColor=none;fillColor=none;align=left;verticalAlign=middle;spacingLeft=4;spacingRight=4;overflow=hidden;rotatable=0;points=[[0,0.5],[1,0.5]];portConstraint=eastwest;whiteSpace=wrap;" parent="YmsPEhmeXx43-MYh7PNv-89" vertex="1">
          <mxGeometry y="142" width="268" height="20" as="geometry" />
        </mxCell>
        <mxCell id="YmsPEhmeXx43-MYh7PNv-101" value="-&amp;nbsp; anonymizationRunIndicator: Boolean" style="text;html=1;strokeColor=none;fillColor=none;align=left;verticalAlign=middle;spacingLeft=4;spacingRight=4;overflow=hidden;rotatable=0;points=[[0,0.5],[1,0.5]];portConstraint=eastwest;whiteSpace=wrap;" parent="YmsPEhmeXx43-MYh7PNv-89" vertex="1">
          <mxGeometry y="162" width="268" height="20" as="geometry" />
        </mxCell>
        <mxCell id="YmsPEhmeXx43-MYh7PNv-96" value="-&amp;nbsp; transformationRunID: UUID" style="text;html=1;strokeColor=none;fillColor=none;align=left;verticalAlign=middle;spacingLeft=4;spacingRight=4;overflow=hidden;rotatable=0;points=[[0,0.5],[1,0.5]];portConstraint=eastwest;whiteSpace=wrap;" parent="YmsPEhmeXx43-MYh7PNv-89" vertex="1">
          <mxGeometry y="182" width="268" height="20" as="geometry" />
        </mxCell>
        <mxCell id="YmsPEhmeXx43-MYh7PNv-102" value="-&amp;nbsp; transformationRunIndicator: Boolean" style="text;html=1;strokeColor=none;fillColor=none;align=left;verticalAlign=middle;spacingLeft=4;spacingRight=4;overflow=hidden;rotatable=0;points=[[0,0.5],[1,0.5]];portConstraint=eastwest;whiteSpace=wrap;" parent="YmsPEhmeXx43-MYh7PNv-89" vertex="1">
          <mxGeometry y="202" width="268" height="20" as="geometry" />
        </mxCell>
        <mxCell id="YmsPEhmeXx43-MYh7PNv-97" value="-&amp;nbsp; mergeRunID: UUID" style="text;html=1;strokeColor=none;fillColor=none;align=left;verticalAlign=middle;spacingLeft=4;spacingRight=4;overflow=hidden;rotatable=0;points=[[0,0.5],[1,0.5]];portConstraint=eastwest;whiteSpace=wrap;" parent="YmsPEhmeXx43-MYh7PNv-89" vertex="1">
          <mxGeometry y="222" width="268" height="20" as="geometry" />
        </mxCell>
        <mxCell id="YmsPEhmeXx43-MYh7PNv-103" value="-&amp;nbsp; mergeRunIndicator: Boolean" style="text;html=1;strokeColor=none;fillColor=none;align=left;verticalAlign=middle;spacingLeft=4;spacingRight=4;overflow=hidden;rotatable=0;points=[[0,0.5],[1,0.5]];portConstraint=eastwest;whiteSpace=wrap;" parent="YmsPEhmeXx43-MYh7PNv-89" vertex="1">
          <mxGeometry y="242" width="268" height="20" as="geometry" />
        </mxCell>
        <mxCell id="YmsPEhmeXx43-MYh7PNv-98" value="" style="line;strokeWidth=1;fillColor=none;align=left;verticalAlign=middle;spacingTop=-1;spacingLeft=3;spacingRight=3;rotatable=0;labelPosition=right;points=[];portConstraint=eastwest;" parent="YmsPEhmeXx43-MYh7PNv-89" vertex="1">
          <mxGeometry y="262" width="268" height="8" as="geometry" />
        </mxCell>
        <mxCell id="YmsPEhmeXx43-MYh7PNv-218" style="edgeStyle=orthogonalEdgeStyle;rounded=0;orthogonalLoop=1;jettySize=auto;html=1;entryX=1;entryY=0.5;entryDx=0;entryDy=0;endArrow=none;endFill=0;" parent="1" source="YmsPEhmeXx43-MYh7PNv-104" target="YmsPEhmeXx43-MYh7PNv-93" edge="1">
          <mxGeometry relative="1" as="geometry">
            <Array as="points">
              <mxPoint x="1731" y="559" />
              <mxPoint x="1731" y="718" />
            </Array>
          </mxGeometry>
        </mxCell>
        <mxCell id="YmsPEhmeXx43-MYh7PNv-231" value="1" style="edgeLabel;html=1;align=center;verticalAlign=middle;resizable=0;points=[];" parent="YmsPEhmeXx43-MYh7PNv-218" vertex="1" connectable="0">
          <mxGeometry x="-0.8594" y="-1" relative="1" as="geometry">
            <mxPoint x="2" y="1" as="offset" />
          </mxGeometry>
        </mxCell>
        <mxCell id="YmsPEhmeXx43-MYh7PNv-104" value="&amp;lt;&amp;lt;entity&amp;gt;&amp;gt;&lt;br&gt;&lt;div&gt;&lt;b&gt;Extraction Runs Table&lt;/b&gt;&lt;/div&gt;" style="swimlane;fontStyle=0;align=center;verticalAlign=top;childLayout=stackLayout;horizontal=1;startSize=42;horizontalStack=0;resizeParent=1;resizeParentMax=0;resizeLast=0;collapsible=0;marginBottom=0;html=1;whiteSpace=wrap;" parent="1" vertex="1">
          <mxGeometry x="1776" y="514" width="268" height="90" as="geometry" />
        </mxCell>
        <mxCell id="YmsPEhmeXx43-MYh7PNv-105" value="- extractionRunID: UUID" style="text;html=1;strokeColor=none;fillColor=none;align=left;verticalAlign=middle;spacingLeft=4;spacingRight=4;overflow=hidden;rotatable=0;points=[[0,0.5],[1,0.5]];portConstraint=eastwest;whiteSpace=wrap;" parent="YmsPEhmeXx43-MYh7PNv-104" vertex="1">
          <mxGeometry y="42" width="268" height="20" as="geometry" />
        </mxCell>
        <mxCell id="YmsPEhmeXx43-MYh7PNv-106" value="- extractionRunInfo: String" style="text;html=1;strokeColor=none;fillColor=none;align=left;verticalAlign=middle;spacingLeft=4;spacingRight=4;overflow=hidden;rotatable=0;points=[[0,0.5],[1,0.5]];portConstraint=eastwest;whiteSpace=wrap;" parent="YmsPEhmeXx43-MYh7PNv-104" vertex="1">
          <mxGeometry y="62" width="268" height="20" as="geometry" />
        </mxCell>
        <mxCell id="YmsPEhmeXx43-MYh7PNv-115" value="" style="line;strokeWidth=1;fillColor=none;align=left;verticalAlign=middle;spacingTop=-1;spacingLeft=3;spacingRight=3;rotatable=0;labelPosition=right;points=[];portConstraint=eastwest;" parent="YmsPEhmeXx43-MYh7PNv-104" vertex="1">
          <mxGeometry y="82" width="268" height="8" as="geometry" />
        </mxCell>
        <mxCell id="YmsPEhmeXx43-MYh7PNv-225" style="edgeStyle=orthogonalEdgeStyle;rounded=0;orthogonalLoop=1;jettySize=auto;html=1;entryX=1;entryY=0.5;entryDx=0;entryDy=0;endArrow=none;endFill=0;" parent="1" source="YmsPEhmeXx43-MYh7PNv-116" target="YmsPEhmeXx43-MYh7PNv-93" edge="1">
          <mxGeometry relative="1" as="geometry">
            <Array as="points">
              <mxPoint x="1731" y="663" />
              <mxPoint x="1731" y="718" />
            </Array>
          </mxGeometry>
        </mxCell>
        <mxCell id="YmsPEhmeXx43-MYh7PNv-230" value="1" style="edgeLabel;html=1;align=center;verticalAlign=middle;resizable=0;points=[];" parent="YmsPEhmeXx43-MYh7PNv-225" vertex="1" connectable="0">
          <mxGeometry x="-0.8238" y="-1" relative="1" as="geometry">
            <mxPoint x="-3" y="1" as="offset" />
          </mxGeometry>
        </mxCell>
        <mxCell id="YmsPEhmeXx43-MYh7PNv-116" value="&amp;lt;&amp;lt;entity&amp;gt;&amp;gt;&lt;br&gt;&lt;div&gt;&lt;b&gt;Cleansed Runs Table&lt;/b&gt;&lt;/div&gt;" style="swimlane;fontStyle=0;align=center;verticalAlign=top;childLayout=stackLayout;horizontal=1;startSize=42;horizontalStack=0;resizeParent=1;resizeParentMax=0;resizeLast=0;collapsible=0;marginBottom=0;html=1;whiteSpace=wrap;" parent="1" vertex="1">
          <mxGeometry x="1776" y="618" width="268" height="90" as="geometry" />
        </mxCell>
        <mxCell id="YmsPEhmeXx43-MYh7PNv-119" value="- cleansedRunID: UUID" style="text;html=1;strokeColor=none;fillColor=none;align=left;verticalAlign=middle;spacingLeft=4;spacingRight=4;overflow=hidden;rotatable=0;points=[[0,0.5],[1,0.5]];portConstraint=eastwest;whiteSpace=wrap;" parent="YmsPEhmeXx43-MYh7PNv-116" vertex="1">
          <mxGeometry y="42" width="268" height="20" as="geometry" />
        </mxCell>
        <mxCell id="YmsPEhmeXx43-MYh7PNv-120" value="- cleansedRunInfo: String" style="text;html=1;strokeColor=none;fillColor=none;align=left;verticalAlign=middle;spacingLeft=4;spacingRight=4;overflow=hidden;rotatable=0;points=[[0,0.5],[1,0.5]];portConstraint=eastwest;whiteSpace=wrap;" parent="YmsPEhmeXx43-MYh7PNv-116" vertex="1">
          <mxGeometry y="62" width="268" height="20" as="geometry" />
        </mxCell>
        <mxCell id="YmsPEhmeXx43-MYh7PNv-127" value="" style="line;strokeWidth=1;fillColor=none;align=left;verticalAlign=middle;spacingTop=-1;spacingLeft=3;spacingRight=3;rotatable=0;labelPosition=right;points=[];portConstraint=eastwest;" parent="YmsPEhmeXx43-MYh7PNv-116" vertex="1">
          <mxGeometry y="82" width="268" height="8" as="geometry" />
        </mxCell>
        <mxCell id="YmsPEhmeXx43-MYh7PNv-224" style="edgeStyle=orthogonalEdgeStyle;rounded=0;orthogonalLoop=1;jettySize=auto;html=1;entryX=1;entryY=0.5;entryDx=0;entryDy=0;endArrow=none;endFill=0;" parent="1" source="YmsPEhmeXx43-MYh7PNv-128" target="YmsPEhmeXx43-MYh7PNv-93" edge="1">
          <mxGeometry relative="1" as="geometry">
            <Array as="points">
              <mxPoint x="1732" y="770" />
              <mxPoint x="1732" y="718" />
            </Array>
          </mxGeometry>
        </mxCell>
        <mxCell id="YmsPEhmeXx43-MYh7PNv-229" value="1" style="edgeLabel;html=1;align=center;verticalAlign=middle;resizable=0;points=[];" parent="YmsPEhmeXx43-MYh7PNv-224" vertex="1" connectable="0">
          <mxGeometry x="-0.7521" y="-1" relative="1" as="geometry">
            <mxPoint x="3" y="1" as="offset" />
          </mxGeometry>
        </mxCell>
        <mxCell id="YmsPEhmeXx43-MYh7PNv-128" value="&amp;lt;&amp;lt;entity&amp;gt;&amp;gt;&lt;br&gt;&lt;div&gt;&lt;b&gt;Anonymization Runs Table&lt;/b&gt;&lt;/div&gt;" style="swimlane;fontStyle=0;align=center;verticalAlign=top;childLayout=stackLayout;horizontal=1;startSize=42;horizontalStack=0;resizeParent=1;resizeParentMax=0;resizeLast=0;collapsible=0;marginBottom=0;html=1;whiteSpace=wrap;" parent="1" vertex="1">
          <mxGeometry x="1776" y="725" width="268" height="90" as="geometry" />
        </mxCell>
        <mxCell id="YmsPEhmeXx43-MYh7PNv-133" value="-&amp;nbsp; anonymizationRunID: UUID" style="text;html=1;strokeColor=none;fillColor=none;align=left;verticalAlign=middle;spacingLeft=4;spacingRight=4;overflow=hidden;rotatable=0;points=[[0,0.5],[1,0.5]];portConstraint=eastwest;whiteSpace=wrap;" parent="YmsPEhmeXx43-MYh7PNv-128" vertex="1">
          <mxGeometry y="42" width="268" height="20" as="geometry" />
        </mxCell>
        <mxCell id="YmsPEhmeXx43-MYh7PNv-134" value="-&amp;nbsp; anonymizationRunInfo: String" style="text;html=1;strokeColor=none;fillColor=none;align=left;verticalAlign=middle;spacingLeft=4;spacingRight=4;overflow=hidden;rotatable=0;points=[[0,0.5],[1,0.5]];portConstraint=eastwest;whiteSpace=wrap;" parent="YmsPEhmeXx43-MYh7PNv-128" vertex="1">
          <mxGeometry y="62" width="268" height="20" as="geometry" />
        </mxCell>
        <mxCell id="YmsPEhmeXx43-MYh7PNv-139" value="" style="line;strokeWidth=1;fillColor=none;align=left;verticalAlign=middle;spacingTop=-1;spacingLeft=3;spacingRight=3;rotatable=0;labelPosition=right;points=[];portConstraint=eastwest;" parent="YmsPEhmeXx43-MYh7PNv-128" vertex="1">
          <mxGeometry y="82" width="268" height="8" as="geometry" />
        </mxCell>
        <mxCell id="YmsPEhmeXx43-MYh7PNv-223" style="edgeStyle=orthogonalEdgeStyle;rounded=0;orthogonalLoop=1;jettySize=auto;html=1;entryX=1;entryY=0.5;entryDx=0;entryDy=0;endArrow=none;endFill=0;" parent="1" source="YmsPEhmeXx43-MYh7PNv-140" target="YmsPEhmeXx43-MYh7PNv-93" edge="1">
          <mxGeometry relative="1" as="geometry">
            <Array as="points">
              <mxPoint x="1732" y="871" />
              <mxPoint x="1732" y="718" />
            </Array>
          </mxGeometry>
        </mxCell>
        <mxCell id="YmsPEhmeXx43-MYh7PNv-228" value="1" style="edgeLabel;html=1;align=center;verticalAlign=middle;resizable=0;points=[];" parent="YmsPEhmeXx43-MYh7PNv-223" vertex="1" connectable="0">
          <mxGeometry x="-0.8379" y="-2" relative="1" as="geometry">
            <mxPoint x="4" y="1" as="offset" />
          </mxGeometry>
        </mxCell>
        <mxCell id="YmsPEhmeXx43-MYh7PNv-140" value="&amp;lt;&amp;lt;entity&amp;gt;&amp;gt;&lt;br&gt;&lt;div&gt;&lt;b&gt;Transformation Runs Table&lt;/b&gt;&lt;/div&gt;" style="swimlane;fontStyle=0;align=center;verticalAlign=top;childLayout=stackLayout;horizontal=1;startSize=42;horizontalStack=0;resizeParent=1;resizeParentMax=0;resizeLast=0;collapsible=0;marginBottom=0;html=1;whiteSpace=wrap;" parent="1" vertex="1">
          <mxGeometry x="1776" y="826" width="268" height="90" as="geometry" />
        </mxCell>
        <mxCell id="YmsPEhmeXx43-MYh7PNv-147" value="-&amp;nbsp; transformationRunID: UUID" style="text;html=1;strokeColor=none;fillColor=none;align=left;verticalAlign=middle;spacingLeft=4;spacingRight=4;overflow=hidden;rotatable=0;points=[[0,0.5],[1,0.5]];portConstraint=eastwest;whiteSpace=wrap;" parent="YmsPEhmeXx43-MYh7PNv-140" vertex="1">
          <mxGeometry y="42" width="268" height="20" as="geometry" />
        </mxCell>
        <mxCell id="YmsPEhmeXx43-MYh7PNv-148" value="-&amp;nbsp; transformationRunInfo: String" style="text;html=1;strokeColor=none;fillColor=none;align=left;verticalAlign=middle;spacingLeft=4;spacingRight=4;overflow=hidden;rotatable=0;points=[[0,0.5],[1,0.5]];portConstraint=eastwest;whiteSpace=wrap;" parent="YmsPEhmeXx43-MYh7PNv-140" vertex="1">
          <mxGeometry y="62" width="268" height="20" as="geometry" />
        </mxCell>
        <mxCell id="YmsPEhmeXx43-MYh7PNv-151" value="" style="line;strokeWidth=1;fillColor=none;align=left;verticalAlign=middle;spacingTop=-1;spacingLeft=3;spacingRight=3;rotatable=0;labelPosition=right;points=[];portConstraint=eastwest;" parent="YmsPEhmeXx43-MYh7PNv-140" vertex="1">
          <mxGeometry y="82" width="268" height="8" as="geometry" />
        </mxCell>
        <mxCell id="YmsPEhmeXx43-MYh7PNv-219" style="edgeStyle=orthogonalEdgeStyle;rounded=0;orthogonalLoop=1;jettySize=auto;html=1;endArrow=diamond;endFill=1;" parent="1" source="YmsPEhmeXx43-MYh7PNv-156" edge="1">
          <mxGeometry relative="1" as="geometry">
            <mxPoint x="1677" y="718" as="targetPoint" />
            <Array as="points">
              <mxPoint x="1732" y="975" />
              <mxPoint x="1732" y="718" />
            </Array>
          </mxGeometry>
        </mxCell>
        <mxCell id="YmsPEhmeXx43-MYh7PNv-226" value="1" style="edgeLabel;html=1;align=center;verticalAlign=middle;resizable=0;points=[];" parent="YmsPEhmeXx43-MYh7PNv-219" vertex="1" connectable="0">
          <mxGeometry x="0.947" y="-1" relative="1" as="geometry">
            <mxPoint x="14" as="offset" />
          </mxGeometry>
        </mxCell>
        <mxCell id="YmsPEhmeXx43-MYh7PNv-227" value="1" style="edgeLabel;html=1;align=center;verticalAlign=middle;resizable=0;points=[];" parent="YmsPEhmeXx43-MYh7PNv-219" vertex="1" connectable="0">
          <mxGeometry x="-0.8884" y="-2" relative="1" as="geometry">
            <mxPoint x="4" as="offset" />
          </mxGeometry>
        </mxCell>
        <mxCell id="YmsPEhmeXx43-MYh7PNv-156" value="&amp;lt;&amp;lt;entity&amp;gt;&amp;gt;&lt;br&gt;&lt;div&gt;&lt;b&gt;Merge Runs Table&lt;/b&gt;&lt;/div&gt;" style="swimlane;fontStyle=0;align=center;verticalAlign=top;childLayout=stackLayout;horizontal=1;startSize=42;horizontalStack=0;resizeParent=1;resizeParentMax=0;resizeLast=0;collapsible=0;marginBottom=0;html=1;whiteSpace=wrap;" parent="1" vertex="1">
          <mxGeometry x="1776" y="930" width="268" height="90" as="geometry" />
        </mxCell>
        <mxCell id="YmsPEhmeXx43-MYh7PNv-165" value="-&amp;nbsp; mergeRunID: UUID" style="text;html=1;strokeColor=none;fillColor=none;align=left;verticalAlign=middle;spacingLeft=4;spacingRight=4;overflow=hidden;rotatable=0;points=[[0,0.5],[1,0.5]];portConstraint=eastwest;whiteSpace=wrap;" parent="YmsPEhmeXx43-MYh7PNv-156" vertex="1">
          <mxGeometry y="42" width="268" height="20" as="geometry" />
        </mxCell>
        <mxCell id="YmsPEhmeXx43-MYh7PNv-166" value="-&amp;nbsp; mergeRunInfo: String" style="text;html=1;strokeColor=none;fillColor=none;align=left;verticalAlign=middle;spacingLeft=4;spacingRight=4;overflow=hidden;rotatable=0;points=[[0,0.5],[1,0.5]];portConstraint=eastwest;whiteSpace=wrap;" parent="YmsPEhmeXx43-MYh7PNv-156" vertex="1">
          <mxGeometry y="62" width="268" height="20" as="geometry" />
        </mxCell>
        <mxCell id="YmsPEhmeXx43-MYh7PNv-167" value="" style="line;strokeWidth=1;fillColor=none;align=left;verticalAlign=middle;spacingTop=-1;spacingLeft=3;spacingRight=3;rotatable=0;labelPosition=right;points=[];portConstraint=eastwest;" parent="YmsPEhmeXx43-MYh7PNv-156" vertex="1">
          <mxGeometry y="82" width="268" height="8" as="geometry" />
        </mxCell>
        <mxCell id="YmsPEhmeXx43-MYh7PNv-233" style="edgeStyle=orthogonalEdgeStyle;rounded=0;orthogonalLoop=1;jettySize=auto;html=1;entryX=0.5;entryY=1;entryDx=0;entryDy=0;endArrow=diamond;endFill=1;" parent="1" source="YmsPEhmeXx43-MYh7PNv-169" target="YmsPEhmeXx43-MYh7PNv-68" edge="1">
          <mxGeometry relative="1" as="geometry" />
        </mxCell>
        <mxCell id="Au5Fy73LcGvytUm_-_bz-140" value="1" style="edgeLabel;html=1;align=center;verticalAlign=middle;resizable=0;points=[];" vertex="1" connectable="0" parent="YmsPEhmeXx43-MYh7PNv-233">
          <mxGeometry x="0.585" relative="1" as="geometry">
            <mxPoint x="12" y="-5" as="offset" />
          </mxGeometry>
        </mxCell>
        <mxCell id="Au5Fy73LcGvytUm_-_bz-141" value="1..*" style="edgeLabel;html=1;align=center;verticalAlign=middle;resizable=0;points=[];" vertex="1" connectable="0" parent="YmsPEhmeXx43-MYh7PNv-233">
          <mxGeometry x="-0.7484" y="-2" relative="1" as="geometry">
            <mxPoint x="10" as="offset" />
          </mxGeometry>
        </mxCell>
        <mxCell id="YmsPEhmeXx43-MYh7PNv-169" value="&amp;lt;&amp;lt;entity&amp;gt;&amp;gt;&lt;br&gt;&lt;div&gt;&lt;b&gt;Accounts Table&lt;/b&gt;&lt;/div&gt;" style="swimlane;fontStyle=0;align=center;verticalAlign=top;childLayout=stackLayout;horizontal=1;startSize=42;horizontalStack=0;resizeParent=1;resizeParentMax=0;resizeLast=0;collapsible=0;marginBottom=0;html=1;whiteSpace=wrap;" parent="1" vertex="1">
          <mxGeometry x="1064" y="840" width="268" height="130" as="geometry" />
        </mxCell>
        <mxCell id="nyeCLd6V4OY8-Zb01Z_Q-2" value="- ID: UUID" style="text;html=1;strokeColor=none;fillColor=none;align=left;verticalAlign=middle;spacingLeft=4;spacingRight=4;overflow=hidden;rotatable=0;points=[[0,0.5],[1,0.5]];portConstraint=eastwest;whiteSpace=wrap;" parent="YmsPEhmeXx43-MYh7PNv-169" vertex="1">
          <mxGeometry y="42" width="268" height="20" as="geometry" />
        </mxCell>
        <mxCell id="YmsPEhmeXx43-MYh7PNv-170" value="- FIO: String" style="text;html=1;strokeColor=none;fillColor=none;align=left;verticalAlign=middle;spacingLeft=4;spacingRight=4;overflow=hidden;rotatable=0;points=[[0,0.5],[1,0.5]];portConstraint=eastwest;whiteSpace=wrap;" parent="YmsPEhmeXx43-MYh7PNv-169" vertex="1">
          <mxGeometry y="62" width="268" height="20" as="geometry" />
        </mxCell>
        <mxCell id="nyeCLd6V4OY8-Zb01Z_Q-1" value="- Token: String" style="text;html=1;strokeColor=none;fillColor=none;align=left;verticalAlign=middle;spacingLeft=4;spacingRight=4;overflow=hidden;rotatable=0;points=[[0,0.5],[1,0.5]];portConstraint=eastwest;whiteSpace=wrap;" parent="YmsPEhmeXx43-MYh7PNv-169" vertex="1">
          <mxGeometry y="82" width="268" height="20" as="geometry" />
        </mxCell>
        <mxCell id="YmsPEhmeXx43-MYh7PNv-171" value="- Permissions: List&amp;lt;Permissions&amp;gt;" style="text;html=1;strokeColor=none;fillColor=none;align=left;verticalAlign=middle;spacingLeft=4;spacingRight=4;overflow=hidden;rotatable=0;points=[[0,0.5],[1,0.5]];portConstraint=eastwest;whiteSpace=wrap;" parent="YmsPEhmeXx43-MYh7PNv-169" vertex="1">
          <mxGeometry y="102" width="268" height="20" as="geometry" />
        </mxCell>
        <mxCell id="YmsPEhmeXx43-MYh7PNv-180" value="" style="line;strokeWidth=1;fillColor=none;align=left;verticalAlign=middle;spacingTop=-1;spacingLeft=3;spacingRight=3;rotatable=0;labelPosition=right;points=[];portConstraint=eastwest;" parent="YmsPEhmeXx43-MYh7PNv-169" vertex="1">
          <mxGeometry y="122" width="268" height="8" as="geometry" />
        </mxCell>
        <mxCell id="YmsPEhmeXx43-MYh7PNv-318" style="edgeStyle=orthogonalEdgeStyle;rounded=0;orthogonalLoop=1;jettySize=auto;html=1;endArrow=diamondThin;endFill=1;" edge="1" parent="1" source="YmsPEhmeXx43-MYh7PNv-181" target="YmsPEhmeXx43-MYh7PNv-169">
          <mxGeometry relative="1" as="geometry" />
        </mxCell>
        <mxCell id="Au5Fy73LcGvytUm_-_bz-138" value="1..*" style="edgeLabel;html=1;align=center;verticalAlign=middle;resizable=0;points=[];" vertex="1" connectable="0" parent="YmsPEhmeXx43-MYh7PNv-318">
          <mxGeometry x="-0.6914" y="-1" relative="1" as="geometry">
            <mxPoint x="11" as="offset" />
          </mxGeometry>
        </mxCell>
        <mxCell id="Au5Fy73LcGvytUm_-_bz-139" value="1" style="edgeLabel;html=1;align=center;verticalAlign=middle;resizable=0;points=[];" vertex="1" connectable="0" parent="YmsPEhmeXx43-MYh7PNv-318">
          <mxGeometry x="0.6772" relative="1" as="geometry">
            <mxPoint x="12" as="offset" />
          </mxGeometry>
        </mxCell>
        <mxCell id="YmsPEhmeXx43-MYh7PNv-181" value="&amp;lt;&amp;lt;entity&amp;gt;&amp;gt;&lt;br&gt;&lt;div&gt;&lt;b&gt;Permissions Directory&lt;/b&gt;&lt;/div&gt;" style="swimlane;fontStyle=0;align=center;verticalAlign=top;childLayout=stackLayout;horizontal=1;startSize=42;horizontalStack=0;resizeParent=1;resizeParentMax=0;resizeLast=0;collapsible=0;marginBottom=0;html=1;whiteSpace=wrap;" parent="1" vertex="1">
          <mxGeometry x="1064" y="1075" width="268" height="90" as="geometry" />
        </mxCell>
        <mxCell id="nyeCLd6V4OY8-Zb01Z_Q-3" value="- id: Long" style="text;html=1;strokeColor=none;fillColor=none;align=left;verticalAlign=middle;spacingLeft=4;spacingRight=4;overflow=hidden;rotatable=0;points=[[0,0.5],[1,0.5]];portConstraint=eastwest;whiteSpace=wrap;" parent="YmsPEhmeXx43-MYh7PNv-181" vertex="1">
          <mxGeometry y="42" width="268" height="20" as="geometry" />
        </mxCell>
        <mxCell id="YmsPEhmeXx43-MYh7PNv-253" value="- name: String" style="text;html=1;strokeColor=none;fillColor=none;align=left;verticalAlign=middle;spacingLeft=4;spacingRight=4;overflow=hidden;rotatable=0;points=[[0,0.5],[1,0.5]];portConstraint=eastwest;whiteSpace=wrap;" parent="YmsPEhmeXx43-MYh7PNv-181" vertex="1">
          <mxGeometry y="62" width="268" height="20" as="geometry" />
        </mxCell>
        <mxCell id="YmsPEhmeXx43-MYh7PNv-184" value="" style="line;strokeWidth=1;fillColor=none;align=left;verticalAlign=middle;spacingTop=-1;spacingLeft=3;spacingRight=3;rotatable=0;labelPosition=right;points=[];portConstraint=eastwest;" parent="YmsPEhmeXx43-MYh7PNv-181" vertex="1">
          <mxGeometry y="82" width="268" height="8" as="geometry" />
        </mxCell>
        <mxCell id="YmsPEhmeXx43-MYh7PNv-249" style="edgeStyle=orthogonalEdgeStyle;rounded=0;orthogonalLoop=1;jettySize=auto;html=1;entryX=0.25;entryY=0;entryDx=0;entryDy=0;endArrow=none;endFill=0;" parent="1" source="YmsPEhmeXx43-MYh7PNv-190" target="YmsPEhmeXx43-MYh7PNv-68" edge="1">
          <mxGeometry relative="1" as="geometry">
            <Array as="points">
              <mxPoint x="1133" y="504" />
            </Array>
          </mxGeometry>
        </mxCell>
        <mxCell id="Au5Fy73LcGvytUm_-_bz-148" value="1" style="edgeLabel;html=1;align=center;verticalAlign=middle;resizable=0;points=[];" vertex="1" connectable="0" parent="YmsPEhmeXx43-MYh7PNv-249">
          <mxGeometry x="0.8967" y="-1" relative="1" as="geometry">
            <mxPoint x="-12" y="3" as="offset" />
          </mxGeometry>
        </mxCell>
        <mxCell id="Au5Fy73LcGvytUm_-_bz-153" value="1" style="edgeLabel;html=1;align=center;verticalAlign=middle;resizable=0;points=[];" vertex="1" connectable="0" parent="YmsPEhmeXx43-MYh7PNv-249">
          <mxGeometry x="-0.9045" y="-1" relative="1" as="geometry">
            <mxPoint y="-15" as="offset" />
          </mxGeometry>
        </mxCell>
        <mxCell id="YmsPEhmeXx43-MYh7PNv-190" value="&amp;lt;&amp;lt;service&amp;gt;&amp;gt;&lt;br&gt;&lt;b&gt;Access Service&lt;/b&gt;&lt;br&gt;&lt;div&gt;&lt;br&gt;&lt;/div&gt;" style="swimlane;fontStyle=0;align=center;verticalAlign=top;childLayout=stackLayout;horizontal=1;startSize=42;horizontalStack=0;resizeParent=1;resizeParentMax=0;resizeLast=0;collapsible=0;marginBottom=0;html=1;whiteSpace=wrap;" parent="1" vertex="1">
          <mxGeometry x="676" y="454" width="188" height="210" as="geometry" />
        </mxCell>
        <mxCell id="YmsPEhmeXx43-MYh7PNv-192" value="" style="line;strokeWidth=1;fillColor=none;align=left;verticalAlign=middle;spacingTop=-1;spacingLeft=3;spacingRight=3;rotatable=0;labelPosition=right;points=[];portConstraint=eastwest;" parent="YmsPEhmeXx43-MYh7PNv-190" vertex="1">
          <mxGeometry y="42" width="188" height="8" as="geometry" />
        </mxCell>
        <mxCell id="YmsPEhmeXx43-MYh7PNv-193" value="+ getCreationStatus&lt;span style=&quot;font-family: Arial, sans-serif; font-size: 14.6667px; white-space-collapse: preserve;&quot;&gt;()&lt;/span&gt;" style="text;html=1;strokeColor=none;fillColor=none;align=left;verticalAlign=middle;spacingLeft=4;spacingRight=4;overflow=hidden;rotatable=0;points=[[0,0.5],[1,0.5]];portConstraint=eastwest;whiteSpace=wrap;" parent="YmsPEhmeXx43-MYh7PNv-190" vertex="1">
          <mxGeometry y="50" width="188" height="20" as="geometry" />
        </mxCell>
        <mxCell id="YmsPEhmeXx43-MYh7PNv-194" value="&lt;font style=&quot;font-size: 12px;&quot;&gt;+ updateAccountPermissions&lt;font style=&quot;font-size: 12px;&quot; face=&quot;Arial, sans-serif&quot;&gt;&lt;span style=&quot;white-space-collapse: preserve;&quot;&gt;()&lt;/span&gt;&lt;/font&gt;&lt;/font&gt;" style="text;html=1;strokeColor=none;fillColor=none;align=left;verticalAlign=middle;spacingLeft=4;spacingRight=4;overflow=hidden;rotatable=0;points=[[0,0.5],[1,0.5]];portConstraint=eastwest;whiteSpace=wrap;" parent="YmsPEhmeXx43-MYh7PNv-190" vertex="1">
          <mxGeometry y="70" width="188" height="20" as="geometry" />
        </mxCell>
        <mxCell id="YmsPEhmeXx43-MYh7PNv-201" value="&lt;font style=&quot;font-size: 12px;&quot;&gt;+ getAccountPermissions&lt;font style=&quot;font-size: 12px;&quot; face=&quot;Arial, sans-serif&quot;&gt;&lt;span style=&quot;white-space-collapse: preserve;&quot;&gt;()&lt;/span&gt;&lt;/font&gt;&lt;/font&gt;" style="text;html=1;strokeColor=none;fillColor=none;align=left;verticalAlign=middle;spacingLeft=4;spacingRight=4;overflow=hidden;rotatable=0;points=[[0,0.5],[1,0.5]];portConstraint=eastwest;whiteSpace=wrap;" parent="YmsPEhmeXx43-MYh7PNv-190" vertex="1">
          <mxGeometry y="90" width="188" height="20" as="geometry" />
        </mxCell>
        <mxCell id="YmsPEhmeXx43-MYh7PNv-202" value="&lt;font style=&quot;font-size: 12px;&quot;&gt;+ checkAccountPermissions&lt;font style=&quot;font-size: 12px;&quot; face=&quot;Arial, sans-serif&quot;&gt;&lt;span style=&quot;white-space-collapse: preserve;&quot;&gt;()&lt;/span&gt;&lt;/font&gt;&lt;/font&gt;" style="text;html=1;strokeColor=none;fillColor=none;align=left;verticalAlign=middle;spacingLeft=4;spacingRight=4;overflow=hidden;rotatable=0;points=[[0,0.5],[1,0.5]];portConstraint=eastwest;whiteSpace=wrap;" parent="YmsPEhmeXx43-MYh7PNv-190" vertex="1">
          <mxGeometry y="110" width="188" height="20" as="geometry" />
        </mxCell>
        <mxCell id="YmsPEhmeXx43-MYh7PNv-195" value="&lt;font style=&quot;font-size: 12px;&quot;&gt;+ getAllAccountList&lt;font style=&quot;font-size: 12px;&quot; face=&quot;Arial, sans-serif&quot;&gt;&lt;span style=&quot;white-space-collapse: preserve;&quot;&gt;()&lt;/span&gt;&lt;/font&gt;&lt;/font&gt;" style="text;html=1;strokeColor=none;fillColor=none;align=left;verticalAlign=middle;spacingLeft=4;spacingRight=4;overflow=hidden;rotatable=0;points=[[0,0.5],[1,0.5]];portConstraint=eastwest;whiteSpace=wrap;" parent="YmsPEhmeXx43-MYh7PNv-190" vertex="1">
          <mxGeometry y="130" width="188" height="20" as="geometry" />
        </mxCell>
        <mxCell id="YmsPEhmeXx43-MYh7PNv-196" value="&lt;font style=&quot;font-size: 12px;&quot;&gt;+ getAllPermissionsList&lt;font style=&quot;font-size: 12px;&quot; face=&quot;Arial, sans-serif&quot;&gt;&lt;span style=&quot;white-space-collapse: preserve;&quot;&gt;()&lt;/span&gt;&lt;/font&gt;&lt;/font&gt;" style="text;html=1;strokeColor=none;fillColor=none;align=left;verticalAlign=middle;spacingLeft=4;spacingRight=4;overflow=hidden;rotatable=0;points=[[0,0.5],[1,0.5]];portConstraint=eastwest;whiteSpace=wrap;" parent="YmsPEhmeXx43-MYh7PNv-190" vertex="1">
          <mxGeometry y="150" width="188" height="20" as="geometry" />
        </mxCell>
        <mxCell id="YmsPEhmeXx43-MYh7PNv-203" value="&lt;font style=&quot;font-size: 12px;&quot;&gt;+ sendApprovalRequest&lt;font style=&quot;font-size: 12px;&quot; face=&quot;Arial, sans-serif&quot;&gt;&lt;span style=&quot;white-space-collapse: preserve;&quot;&gt;()&lt;/span&gt;&lt;/font&gt;&lt;/font&gt;" style="text;html=1;strokeColor=none;fillColor=none;align=left;verticalAlign=middle;spacingLeft=4;spacingRight=4;overflow=hidden;rotatable=0;points=[[0,0.5],[1,0.5]];portConstraint=eastwest;whiteSpace=wrap;" parent="YmsPEhmeXx43-MYh7PNv-190" vertex="1">
          <mxGeometry y="170" width="188" height="20" as="geometry" />
        </mxCell>
        <mxCell id="YmsPEhmeXx43-MYh7PNv-204" value="&lt;font style=&quot;font-size: 12px;&quot;&gt;+ sendTerminateRequest&lt;font style=&quot;font-size: 12px;&quot; face=&quot;Arial, sans-serif&quot;&gt;&lt;span style=&quot;white-space-collapse: preserve;&quot;&gt;()&lt;/span&gt;&lt;/font&gt;&lt;/font&gt;" style="text;html=1;strokeColor=none;fillColor=none;align=left;verticalAlign=middle;spacingLeft=4;spacingRight=4;overflow=hidden;rotatable=0;points=[[0,0.5],[1,0.5]];portConstraint=eastwest;whiteSpace=wrap;" parent="YmsPEhmeXx43-MYh7PNv-190" vertex="1">
          <mxGeometry y="190" width="188" height="20" as="geometry" />
        </mxCell>
        <mxCell id="YmsPEhmeXx43-MYh7PNv-206" value="&amp;lt;&amp;lt;root&amp;gt;&amp;gt;&lt;br&gt;&lt;b&gt;Logger Controller&lt;/b&gt;&lt;br&gt;&lt;div&gt;&lt;br&gt;&lt;/div&gt;" style="swimlane;fontStyle=0;align=center;verticalAlign=top;childLayout=stackLayout;horizontal=1;startSize=42;horizontalStack=0;resizeParent=1;resizeParentMax=0;resizeLast=0;collapsible=0;marginBottom=0;html=1;whiteSpace=wrap;" parent="1" vertex="1">
          <mxGeometry x="981" y="82" width="268" height="90" as="geometry" />
        </mxCell>
        <mxCell id="YmsPEhmeXx43-MYh7PNv-207" value="- logger: Logger" style="text;html=1;strokeColor=none;fillColor=none;align=left;verticalAlign=middle;spacingLeft=4;spacingRight=4;overflow=hidden;rotatable=0;points=[[0,0.5],[1,0.5]];portConstraint=eastwest;whiteSpace=wrap;" parent="YmsPEhmeXx43-MYh7PNv-206" vertex="1">
          <mxGeometry y="42" width="268" height="20" as="geometry" />
        </mxCell>
        <mxCell id="YmsPEhmeXx43-MYh7PNv-208" value="" style="line;strokeWidth=1;fillColor=none;align=left;verticalAlign=middle;spacingTop=-1;spacingLeft=3;spacingRight=3;rotatable=0;labelPosition=right;points=[];portConstraint=eastwest;" parent="YmsPEhmeXx43-MYh7PNv-206" vertex="1">
          <mxGeometry y="62" width="268" height="8" as="geometry" />
        </mxCell>
        <mxCell id="YmsPEhmeXx43-MYh7PNv-209" value="&lt;span style=&quot;text-align: center; background-color: initial;&quot;&gt;+ returnJobRunLogs()&lt;/span&gt;" style="text;html=1;strokeColor=none;fillColor=none;align=left;verticalAlign=middle;spacingLeft=4;spacingRight=4;overflow=hidden;rotatable=0;points=[[0,0.5],[1,0.5]];portConstraint=eastwest;whiteSpace=wrap;" parent="YmsPEhmeXx43-MYh7PNv-206" vertex="1">
          <mxGeometry y="70" width="268" height="20" as="geometry" />
        </mxCell>
        <mxCell id="YmsPEhmeXx43-MYh7PNv-248" style="edgeStyle=orthogonalEdgeStyle;rounded=0;orthogonalLoop=1;jettySize=auto;html=1;endArrow=none;endFill=0;" parent="1" source="YmsPEhmeXx43-MYh7PNv-210" target="YmsPEhmeXx43-MYh7PNv-68" edge="1">
          <mxGeometry relative="1" as="geometry">
            <Array as="points">
              <mxPoint x="1160" y="480" />
              <mxPoint x="1200" y="480" />
            </Array>
          </mxGeometry>
        </mxCell>
        <mxCell id="Au5Fy73LcGvytUm_-_bz-147" value="1" style="edgeLabel;html=1;align=center;verticalAlign=middle;resizable=0;points=[];" vertex="1" connectable="0" parent="YmsPEhmeXx43-MYh7PNv-248">
          <mxGeometry x="0.8647" y="-3" relative="1" as="geometry">
            <mxPoint x="-7" y="4" as="offset" />
          </mxGeometry>
        </mxCell>
        <mxCell id="Au5Fy73LcGvytUm_-_bz-150" value="1" style="edgeLabel;html=1;align=center;verticalAlign=middle;resizable=0;points=[];" vertex="1" connectable="0" parent="YmsPEhmeXx43-MYh7PNv-248">
          <mxGeometry x="-0.8344" y="-2" relative="1" as="geometry">
            <mxPoint x="12" as="offset" />
          </mxGeometry>
        </mxCell>
        <mxCell id="YmsPEhmeXx43-MYh7PNv-315" style="edgeStyle=orthogonalEdgeStyle;rounded=0;orthogonalLoop=1;jettySize=auto;html=1;endArrow=diamondThin;endFill=1;" edge="1" parent="1" source="YmsPEhmeXx43-MYh7PNv-210" target="YmsPEhmeXx43-MYh7PNv-206">
          <mxGeometry relative="1" as="geometry" />
        </mxCell>
        <mxCell id="Au5Fy73LcGvytUm_-_bz-151" value="1" style="edgeLabel;html=1;align=center;verticalAlign=middle;resizable=0;points=[];" vertex="1" connectable="0" parent="YmsPEhmeXx43-MYh7PNv-315">
          <mxGeometry x="0.6388" y="-1" relative="1" as="geometry">
            <mxPoint x="14" y="-7" as="offset" />
          </mxGeometry>
        </mxCell>
        <mxCell id="Au5Fy73LcGvytUm_-_bz-152" value="1" style="edgeLabel;html=1;align=center;verticalAlign=middle;resizable=0;points=[];" vertex="1" connectable="0" parent="YmsPEhmeXx43-MYh7PNv-315">
          <mxGeometry x="-0.5041" y="1" relative="1" as="geometry">
            <mxPoint x="16" y="3" as="offset" />
          </mxGeometry>
        </mxCell>
        <mxCell id="YmsPEhmeXx43-MYh7PNv-210" value="&amp;lt;&amp;lt;service&amp;gt;&amp;gt;&lt;br&gt;&lt;b&gt;Logger&lt;/b&gt;&lt;br&gt;&lt;div&gt;&lt;br&gt;&lt;/div&gt;" style="swimlane;fontStyle=0;align=center;verticalAlign=top;childLayout=stackLayout;horizontal=1;startSize=42;horizontalStack=0;resizeParent=1;resizeParentMax=0;resizeLast=0;collapsible=0;marginBottom=0;html=1;whiteSpace=wrap;" parent="1" vertex="1">
          <mxGeometry x="981" y="259" width="268" height="90" as="geometry" />
        </mxCell>
        <mxCell id="YmsPEhmeXx43-MYh7PNv-212" value="" style="line;strokeWidth=1;fillColor=none;align=left;verticalAlign=middle;spacingTop=-1;spacingLeft=3;spacingRight=3;rotatable=0;labelPosition=right;points=[];portConstraint=eastwest;" parent="YmsPEhmeXx43-MYh7PNv-210" vertex="1">
          <mxGeometry y="42" width="268" height="8" as="geometry" />
        </mxCell>
        <mxCell id="YmsPEhmeXx43-MYh7PNv-213" value="&lt;span style=&quot;text-align: center; background-color: initial;&quot;&gt;+ getServiceLogs()&lt;/span&gt;" style="text;html=1;strokeColor=none;fillColor=none;align=left;verticalAlign=middle;spacingLeft=4;spacingRight=4;overflow=hidden;rotatable=0;points=[[0,0.5],[1,0.5]];portConstraint=eastwest;whiteSpace=wrap;" parent="YmsPEhmeXx43-MYh7PNv-210" vertex="1">
          <mxGeometry y="50" width="268" height="20" as="geometry" />
        </mxCell>
        <mxCell id="YmsPEhmeXx43-MYh7PNv-214" value="&lt;span style=&quot;text-align: center; background-color: initial;&quot;&gt;+ getJobsRunLogsETL()&lt;/span&gt;" style="text;html=1;strokeColor=none;fillColor=none;align=left;verticalAlign=middle;spacingLeft=4;spacingRight=4;overflow=hidden;rotatable=0;points=[[0,0.5],[1,0.5]];portConstraint=eastwest;whiteSpace=wrap;" parent="YmsPEhmeXx43-MYh7PNv-210" vertex="1">
          <mxGeometry y="70" width="268" height="20" as="geometry" />
        </mxCell>
        <mxCell id="YmsPEhmeXx43-MYh7PNv-235" style="edgeStyle=orthogonalEdgeStyle;rounded=0;orthogonalLoop=1;jettySize=auto;html=1;endArrow=none;endFill=0;" parent="1" source="YmsPEhmeXx43-MYh7PNv-62" target="YmsPEhmeXx43-MYh7PNv-68" edge="1">
          <mxGeometry relative="1" as="geometry">
            <mxPoint x="1336" y="533" as="targetPoint" />
            <Array as="points">
              <mxPoint x="1265" y="414" />
            </Array>
          </mxGeometry>
        </mxCell>
        <mxCell id="Au5Fy73LcGvytUm_-_bz-145" value="1" style="edgeLabel;html=1;align=center;verticalAlign=middle;resizable=0;points=[];" vertex="1" connectable="0" parent="YmsPEhmeXx43-MYh7PNv-235">
          <mxGeometry x="0.8752" relative="1" as="geometry">
            <mxPoint x="-16" y="1" as="offset" />
          </mxGeometry>
        </mxCell>
        <mxCell id="Au5Fy73LcGvytUm_-_bz-149" value="1..*" style="edgeLabel;html=1;align=center;verticalAlign=middle;resizable=0;points=[];" vertex="1" connectable="0" parent="YmsPEhmeXx43-MYh7PNv-235">
          <mxGeometry x="-0.812" y="-2" relative="1" as="geometry">
            <mxPoint y="-12" as="offset" />
          </mxGeometry>
        </mxCell>
        <mxCell id="YmsPEhmeXx43-MYh7PNv-245" style="edgeStyle=orthogonalEdgeStyle;rounded=0;orthogonalLoop=1;jettySize=auto;html=1;endArrow=none;endFill=0;dashed=1;startArrow=block;startFill=0;" parent="1" source="Au5Fy73LcGvytUm_-_bz-95" target="YmsPEhmeXx43-MYh7PNv-206" edge="1">
          <mxGeometry relative="1" as="geometry">
            <mxPoint x="857.5" y="-465.9655172413793" as="sourcePoint" />
            <Array as="points">
              <mxPoint x="884" y="60" />
              <mxPoint x="1115" y="60" />
            </Array>
          </mxGeometry>
        </mxCell>
        <mxCell id="nyeCLd6V4OY8-Zb01Z_Q-4" value="&amp;lt;&amp;lt;root&amp;gt;&amp;gt;&lt;br&gt;&lt;span style=&quot;font-weight: 700;&quot;&gt;Configuration&amp;nbsp;Service Controller&lt;/span&gt;&lt;br&gt;&lt;div&gt;&lt;br&gt;&lt;/div&gt;" style="swimlane;fontStyle=0;align=center;verticalAlign=top;childLayout=stackLayout;horizontal=1;startSize=42;horizontalStack=0;resizeParent=1;resizeParentMax=0;resizeLast=0;collapsible=0;marginBottom=0;html=1;whiteSpace=wrap;" parent="1" vertex="1">
          <mxGeometry x="588" y="774" width="322" height="110" as="geometry" />
        </mxCell>
        <mxCell id="nyeCLd6V4OY8-Zb01Z_Q-6" value="- configurationService: Configuration Service" style="text;html=1;strokeColor=none;fillColor=none;align=left;verticalAlign=middle;spacingLeft=4;spacingRight=4;overflow=hidden;rotatable=0;points=[[0,0.5],[1,0.5]];portConstraint=eastwest;whiteSpace=wrap;" parent="nyeCLd6V4OY8-Zb01Z_Q-4" vertex="1">
          <mxGeometry y="42" width="322" height="20" as="geometry" />
        </mxCell>
        <mxCell id="nyeCLd6V4OY8-Zb01Z_Q-5" value="" style="line;strokeWidth=1;fillColor=none;align=left;verticalAlign=middle;spacingTop=-1;spacingLeft=3;spacingRight=3;rotatable=0;labelPosition=right;points=[];portConstraint=eastwest;" parent="nyeCLd6V4OY8-Zb01Z_Q-4" vertex="1">
          <mxGeometry y="62" width="322" height="8" as="geometry" />
        </mxCell>
        <mxCell id="nyeCLd6V4OY8-Zb01Z_Q-14" value="- sendConfigFile&lt;span style=&quot;font-family: Arial, sans-serif; font-size: 14.6667px; white-space-collapse: preserve;&quot;&gt;()&lt;/span&gt;" style="text;html=1;strokeColor=none;fillColor=none;align=left;verticalAlign=middle;spacingLeft=4;spacingRight=4;overflow=hidden;rotatable=0;points=[[0,0.5],[1,0.5]];portConstraint=eastwest;whiteSpace=wrap;" vertex="1" parent="nyeCLd6V4OY8-Zb01Z_Q-4">
          <mxGeometry y="70" width="322" height="20" as="geometry" />
        </mxCell>
        <mxCell id="nyeCLd6V4OY8-Zb01Z_Q-15" value="- returnConnectionStatus&lt;span style=&quot;font-family: Arial, sans-serif; font-size: 14.6667px; white-space-collapse: preserve;&quot;&gt;()&lt;/span&gt;" style="text;html=1;strokeColor=none;fillColor=none;align=left;verticalAlign=middle;spacingLeft=4;spacingRight=4;overflow=hidden;rotatable=0;points=[[0,0.5],[1,0.5]];portConstraint=eastwest;whiteSpace=wrap;" vertex="1" parent="nyeCLd6V4OY8-Zb01Z_Q-4">
          <mxGeometry y="90" width="322" height="20" as="geometry" />
        </mxCell>
        <mxCell id="nyeCLd6V4OY8-Zb01Z_Q-56" style="edgeStyle=orthogonalEdgeStyle;rounded=0;orthogonalLoop=1;jettySize=auto;html=1;endArrow=diamond;endFill=1;" edge="1" parent="1" source="nyeCLd6V4OY8-Zb01Z_Q-16" target="nyeCLd6V4OY8-Zb01Z_Q-4">
          <mxGeometry relative="1" as="geometry">
            <Array as="points">
              <mxPoint x="752" y="923" />
              <mxPoint x="752" y="923" />
            </Array>
          </mxGeometry>
        </mxCell>
        <mxCell id="nyeCLd6V4OY8-Zb01Z_Q-65" style="edgeStyle=orthogonalEdgeStyle;rounded=0;orthogonalLoop=1;jettySize=auto;html=1;endArrow=none;endFill=0;" edge="1" parent="1" source="nyeCLd6V4OY8-Zb01Z_Q-16" target="nyeCLd6V4OY8-Zb01Z_Q-34">
          <mxGeometry relative="1" as="geometry">
            <Array as="points">
              <mxPoint x="501" y="1049" />
              <mxPoint x="501" y="1049" />
            </Array>
          </mxGeometry>
        </mxCell>
        <mxCell id="nyeCLd6V4OY8-Zb01Z_Q-16" value="&amp;lt;&amp;lt;Service&amp;gt;&amp;gt;&lt;br&gt;&lt;span style=&quot;font-weight: 700;&quot;&gt;Configuration&amp;nbsp;Service&lt;/span&gt;&lt;br&gt;&lt;div&gt;&lt;br&gt;&lt;/div&gt;&lt;div&gt;&lt;br&gt;&lt;/div&gt;&lt;div&gt;&lt;br&gt;&lt;/div&gt;" style="swimlane;fontStyle=0;align=center;verticalAlign=top;childLayout=stackLayout;horizontal=1;startSize=42;horizontalStack=0;resizeParent=1;resizeParentMax=0;resizeLast=0;collapsible=0;marginBottom=0;html=1;whiteSpace=wrap;" vertex="1" parent="1">
          <mxGeometry x="588" y="968" width="322" height="170" as="geometry" />
        </mxCell>
        <mxCell id="nyeCLd6V4OY8-Zb01Z_Q-17" value="- configFile: Config Entity" style="text;html=1;strokeColor=none;fillColor=none;align=left;verticalAlign=middle;spacingLeft=4;spacingRight=4;overflow=hidden;rotatable=0;points=[[0,0.5],[1,0.5]];portConstraint=eastwest;whiteSpace=wrap;" vertex="1" parent="nyeCLd6V4OY8-Zb01Z_Q-16">
          <mxGeometry y="42" width="322" height="20" as="geometry" />
        </mxCell>
        <mxCell id="nyeCLd6V4OY8-Zb01Z_Q-18" value="" style="line;strokeWidth=1;fillColor=none;align=left;verticalAlign=middle;spacingTop=-1;spacingLeft=3;spacingRight=3;rotatable=0;labelPosition=right;points=[];portConstraint=eastwest;" vertex="1" parent="nyeCLd6V4OY8-Zb01Z_Q-16">
          <mxGeometry y="62" width="322" height="8" as="geometry" />
        </mxCell>
        <mxCell id="nyeCLd6V4OY8-Zb01Z_Q-19" value="+ setConfigFile&lt;span style=&quot;font-family: Arial, sans-serif; font-size: 14.6667px; white-space-collapse: preserve;&quot;&gt;()&lt;/span&gt;" style="text;html=1;strokeColor=none;fillColor=none;align=left;verticalAlign=middle;spacingLeft=4;spacingRight=4;overflow=hidden;rotatable=0;points=[[0,0.5],[1,0.5]];portConstraint=eastwest;whiteSpace=wrap;" vertex="1" parent="nyeCLd6V4OY8-Zb01Z_Q-16">
          <mxGeometry y="70" width="322" height="20" as="geometry" />
        </mxCell>
        <mxCell id="nyeCLd6V4OY8-Zb01Z_Q-31" value="+ getConfigFile&lt;span style=&quot;font-family: Arial, sans-serif; font-size: 14.6667px; white-space-collapse: preserve;&quot;&gt;()&lt;/span&gt;" style="text;html=1;strokeColor=none;fillColor=none;align=left;verticalAlign=middle;spacingLeft=4;spacingRight=4;overflow=hidden;rotatable=0;points=[[0,0.5],[1,0.5]];portConstraint=eastwest;whiteSpace=wrap;" vertex="1" parent="nyeCLd6V4OY8-Zb01Z_Q-16">
          <mxGeometry y="90" width="322" height="20" as="geometry" />
        </mxCell>
        <mxCell id="nyeCLd6V4OY8-Zb01Z_Q-20" value="+ fillConfigEntity&lt;span style=&quot;font-family: Arial, sans-serif; font-size: 14.6667px; white-space-collapse: preserve;&quot;&gt;()&lt;/span&gt;" style="text;html=1;strokeColor=none;fillColor=none;align=left;verticalAlign=middle;spacingLeft=4;spacingRight=4;overflow=hidden;rotatable=0;points=[[0,0.5],[1,0.5]];portConstraint=eastwest;whiteSpace=wrap;" vertex="1" parent="nyeCLd6V4OY8-Zb01Z_Q-16">
          <mxGeometry y="110" width="322" height="20" as="geometry" />
        </mxCell>
        <mxCell id="nyeCLd6V4OY8-Zb01Z_Q-32" value="+ sendConfigRequest&lt;span style=&quot;font-family: Arial, sans-serif; font-size: 14.6667px; white-space-collapse: preserve;&quot;&gt;()&lt;/span&gt;" style="text;html=1;strokeColor=none;fillColor=none;align=left;verticalAlign=middle;spacingLeft=4;spacingRight=4;overflow=hidden;rotatable=0;points=[[0,0.5],[1,0.5]];portConstraint=eastwest;whiteSpace=wrap;" vertex="1" parent="nyeCLd6V4OY8-Zb01Z_Q-16">
          <mxGeometry y="130" width="322" height="20" as="geometry" />
        </mxCell>
        <mxCell id="nyeCLd6V4OY8-Zb01Z_Q-33" value="+ checkConnectionStatus&lt;span style=&quot;font-family: Arial, sans-serif; font-size: 14.6667px; white-space-collapse: preserve;&quot;&gt;()&lt;/span&gt;" style="text;html=1;strokeColor=none;fillColor=none;align=left;verticalAlign=middle;spacingLeft=4;spacingRight=4;overflow=hidden;rotatable=0;points=[[0,0.5],[1,0.5]];portConstraint=eastwest;whiteSpace=wrap;" vertex="1" parent="nyeCLd6V4OY8-Zb01Z_Q-16">
          <mxGeometry y="150" width="322" height="20" as="geometry" />
        </mxCell>
        <mxCell id="Au5Fy73LcGvytUm_-_bz-1" value="&amp;lt;&amp;lt;root&amp;gt;&amp;gt;&lt;br&gt;&lt;b&gt;ETL Process  Controller&lt;/b&gt;" style="swimlane;fontStyle=0;align=center;verticalAlign=top;childLayout=stackLayout;horizontal=1;startSize=42;horizontalStack=0;resizeParent=1;resizeParentMax=0;resizeLast=0;collapsible=0;marginBottom=0;html=1;whiteSpace=wrap;" vertex="1" parent="1">
          <mxGeometry x="90" y="-258" width="268" height="190" as="geometry" />
        </mxCell>
        <mxCell id="Au5Fy73LcGvytUm_-_bz-2" value="- etlProcess Service :&amp;nbsp;ETL Process  Service" style="text;html=1;strokeColor=none;fillColor=none;align=left;verticalAlign=middle;spacingLeft=4;spacingRight=4;overflow=hidden;rotatable=0;points=[[0,0.5],[1,0.5]];portConstraint=eastwest;whiteSpace=wrap;" vertex="1" parent="Au5Fy73LcGvytUm_-_bz-1">
          <mxGeometry y="42" width="268" height="20" as="geometry" />
        </mxCell>
        <mxCell id="Au5Fy73LcGvytUm_-_bz-3" value="" style="line;strokeWidth=1;fillColor=none;align=left;verticalAlign=middle;spacingTop=-1;spacingLeft=3;spacingRight=3;rotatable=0;labelPosition=right;points=[];portConstraint=eastwest;" vertex="1" parent="Au5Fy73LcGvytUm_-_bz-1">
          <mxGeometry y="62" width="268" height="8" as="geometry" />
        </mxCell>
        <mxCell id="Au5Fy73LcGvytUm_-_bz-4" value="&lt;div style=&quot;text-align: center;&quot;&gt;&lt;span style=&quot;background-color: initial;&quot;&gt;+&amp;nbsp;&lt;/span&gt;&lt;span style=&quot;background-color: initial; text-align: left;&quot;&gt;returnReadyDataset()&lt;/span&gt;&lt;/div&gt;" style="text;html=1;strokeColor=none;fillColor=none;align=left;verticalAlign=middle;spacingLeft=4;spacingRight=4;overflow=hidden;rotatable=0;points=[[0,0.5],[1,0.5]];portConstraint=eastwest;whiteSpace=wrap;" vertex="1" parent="Au5Fy73LcGvytUm_-_bz-1">
          <mxGeometry y="70" width="268" height="20" as="geometry" />
        </mxCell>
        <mxCell id="Au5Fy73LcGvytUm_-_bz-5" value="&lt;div style=&quot;text-align: left;&quot;&gt;&lt;span style=&quot;background-color: initial;&quot;&gt;+ return&lt;/span&gt;&lt;span style=&quot;background-color: initial; text-align: left;&quot;&gt;RunStatus()&lt;/span&gt;&lt;/div&gt;" style="text;html=1;strokeColor=none;fillColor=none;align=left;verticalAlign=middle;spacingLeft=4;spacingRight=4;overflow=hidden;rotatable=0;points=[[0,0.5],[1,0.5]];portConstraint=eastwest;whiteSpace=wrap;" vertex="1" parent="Au5Fy73LcGvytUm_-_bz-1">
          <mxGeometry y="90" width="268" height="20" as="geometry" />
        </mxCell>
        <mxCell id="Au5Fy73LcGvytUm_-_bz-6" value="&lt;div style=&quot;text-align: left;&quot;&gt;&lt;span style=&quot;background-color: initial;&quot;&gt;+&amp;nbsp;&lt;/span&gt;&lt;span style=&quot;background-color: initial; text-align: left;&quot;&gt;returnStatus()&lt;/span&gt;&lt;/div&gt;" style="text;html=1;strokeColor=none;fillColor=none;align=left;verticalAlign=middle;spacingLeft=4;spacingRight=4;overflow=hidden;rotatable=0;points=[[0,0.5],[1,0.5]];portConstraint=eastwest;whiteSpace=wrap;" vertex="1" parent="Au5Fy73LcGvytUm_-_bz-1">
          <mxGeometry y="110" width="268" height="20" as="geometry" />
        </mxCell>
        <mxCell id="YmsPEhmeXx43-MYh7PNv-257" value="&lt;div style=&quot;text-align: left;&quot;&gt;&lt;span style=&quot;background-color: initial;&quot;&gt;+ sendTerminateRequest&lt;/span&gt;&lt;span style=&quot;background-color: initial; text-align: left;&quot;&gt;()&lt;/span&gt;&lt;/div&gt;" style="text;html=1;strokeColor=none;fillColor=none;align=left;verticalAlign=middle;spacingLeft=4;spacingRight=4;overflow=hidden;rotatable=0;points=[[0,0.5],[1,0.5]];portConstraint=eastwest;whiteSpace=wrap;" vertex="1" parent="Au5Fy73LcGvytUm_-_bz-1">
          <mxGeometry y="130" width="268" height="20" as="geometry" />
        </mxCell>
        <mxCell id="YmsPEhmeXx43-MYh7PNv-259" value="&lt;div style=&quot;text-align: left;&quot;&gt;&lt;span style=&quot;background-color: initial;&quot;&gt;+ sendRestartRequest&lt;/span&gt;&lt;span style=&quot;background-color: initial; text-align: left;&quot;&gt;()&lt;/span&gt;&lt;/div&gt;" style="text;html=1;strokeColor=none;fillColor=none;align=left;verticalAlign=middle;spacingLeft=4;spacingRight=4;overflow=hidden;rotatable=0;points=[[0,0.5],[1,0.5]];portConstraint=eastwest;whiteSpace=wrap;" vertex="1" parent="Au5Fy73LcGvytUm_-_bz-1">
          <mxGeometry y="150" width="268" height="20" as="geometry" />
        </mxCell>
        <mxCell id="YmsPEhmeXx43-MYh7PNv-258" value="&lt;div style=&quot;text-align: left;&quot;&gt;&lt;span style=&quot;background-color: initial;&quot;&gt;+ returnDescriptionEntities&lt;/span&gt;&lt;span style=&quot;background-color: initial; text-align: left;&quot;&gt;()&lt;/span&gt;&lt;/div&gt;" style="text;html=1;strokeColor=none;fillColor=none;align=left;verticalAlign=middle;spacingLeft=4;spacingRight=4;overflow=hidden;rotatable=0;points=[[0,0.5],[1,0.5]];portConstraint=eastwest;whiteSpace=wrap;" vertex="1" parent="Au5Fy73LcGvytUm_-_bz-1">
          <mxGeometry y="170" width="268" height="20" as="geometry" />
        </mxCell>
        <mxCell id="Au5Fy73LcGvytUm_-_bz-20" style="edgeStyle=orthogonalEdgeStyle;rounded=0;orthogonalLoop=1;jettySize=auto;html=1;endArrow=diamondThin;endFill=1;" edge="1" parent="1" source="Au5Fy73LcGvytUm_-_bz-7" target="Au5Fy73LcGvytUm_-_bz-1">
          <mxGeometry relative="1" as="geometry" />
        </mxCell>
        <mxCell id="Au5Fy73LcGvytUm_-_bz-115" value="1" style="edgeLabel;html=1;align=center;verticalAlign=middle;resizable=0;points=[];" vertex="1" connectable="0" parent="Au5Fy73LcGvytUm_-_bz-20">
          <mxGeometry x="0.7304" y="1" relative="1" as="geometry">
            <mxPoint x="7" y="-6" as="offset" />
          </mxGeometry>
        </mxCell>
        <mxCell id="Au5Fy73LcGvytUm_-_bz-116" value="1" style="edgeLabel;html=1;align=center;verticalAlign=middle;resizable=0;points=[];" vertex="1" connectable="0" parent="Au5Fy73LcGvytUm_-_bz-20">
          <mxGeometry x="-0.8031" y="-2" relative="1" as="geometry">
            <mxPoint x="14" as="offset" />
          </mxGeometry>
        </mxCell>
        <mxCell id="YmsPEhmeXx43-MYh7PNv-300" style="edgeStyle=orthogonalEdgeStyle;rounded=0;orthogonalLoop=1;jettySize=auto;html=1;endArrow=diamond;endFill=1;" edge="1" parent="1" source="Au5Fy73LcGvytUm_-_bz-7">
          <mxGeometry relative="1" as="geometry">
            <mxPoint x="224" y="580" as="targetPoint" />
          </mxGeometry>
        </mxCell>
        <mxCell id="YmsPEhmeXx43-MYh7PNv-302" value="1" style="edgeLabel;html=1;align=center;verticalAlign=middle;resizable=0;points=[];" connectable="0" vertex="1" parent="YmsPEhmeXx43-MYh7PNv-300">
          <mxGeometry x="0.7611" y="-2" relative="1" as="geometry">
            <mxPoint x="13" y="-78" as="offset" />
          </mxGeometry>
        </mxCell>
        <mxCell id="Au5Fy73LcGvytUm_-_bz-7" value="&amp;lt;&amp;lt;service&amp;gt;&amp;gt;&lt;br&gt;&lt;b&gt;ETL Process  Service&lt;/b&gt;" style="swimlane;fontStyle=0;align=center;verticalAlign=top;childLayout=stackLayout;horizontal=1;startSize=42;horizontalStack=0;resizeParent=1;resizeParentMax=0;resizeLast=0;collapsible=0;marginBottom=0;html=1;whiteSpace=wrap;" vertex="1" parent="1">
          <mxGeometry x="90" y="109" width="268" height="370" as="geometry" />
        </mxCell>
        <mxCell id="Au5Fy73LcGvytUm_-_bz-26" value="- configFile: File" style="text;html=1;strokeColor=none;fillColor=none;align=left;verticalAlign=middle;spacingLeft=4;spacingRight=4;overflow=hidden;rotatable=0;points=[[0,0.5],[1,0.5]];portConstraint=eastwest;whiteSpace=wrap;" vertex="1" parent="Au5Fy73LcGvytUm_-_bz-7">
          <mxGeometry y="42" width="268" height="30" as="geometry" />
        </mxCell>
        <mxCell id="nyeCLd6V4OY8-Zb01Z_Q-39" value="- processStatus: String" style="text;html=1;strokeColor=none;fillColor=none;align=left;verticalAlign=middle;spacingLeft=4;spacingRight=4;overflow=hidden;rotatable=0;points=[[0,0.5],[1,0.5]];portConstraint=eastwest;whiteSpace=wrap;" vertex="1" parent="Au5Fy73LcGvytUm_-_bz-7">
          <mxGeometry y="72" width="268" height="30" as="geometry" />
        </mxCell>
        <mxCell id="Au5Fy73LcGvytUm_-_bz-9" value="" style="line;strokeWidth=1;fillColor=none;align=left;verticalAlign=middle;spacingTop=-1;spacingLeft=3;spacingRight=3;rotatable=0;labelPosition=right;points=[];portConstraint=eastwest;" vertex="1" parent="Au5Fy73LcGvytUm_-_bz-7">
          <mxGeometry y="102" width="268" height="8" as="geometry" />
        </mxCell>
        <mxCell id="Au5Fy73LcGvytUm_-_bz-10" value="&lt;span style=&quot;text-align: center; background-color: initial;&quot;&gt;+ returnDescriptionFile()&lt;/span&gt;" style="text;html=1;strokeColor=none;fillColor=none;align=left;verticalAlign=middle;spacingLeft=4;spacingRight=4;overflow=hidden;rotatable=0;points=[[0,0.5],[1,0.5]];portConstraint=eastwest;whiteSpace=wrap;" vertex="1" parent="Au5Fy73LcGvytUm_-_bz-7">
          <mxGeometry y="110" width="268" height="20" as="geometry" />
        </mxCell>
        <mxCell id="Au5Fy73LcGvytUm_-_bz-11" value="&lt;span style=&quot;text-align: center; background-color: initial;&quot;&gt;+ runExtractProcess ()&lt;/span&gt;" style="text;html=1;strokeColor=none;fillColor=none;align=left;verticalAlign=middle;spacingLeft=4;spacingRight=4;overflow=hidden;rotatable=0;points=[[0,0.5],[1,0.5]];portConstraint=eastwest;whiteSpace=wrap;" vertex="1" parent="Au5Fy73LcGvytUm_-_bz-7">
          <mxGeometry y="130" width="268" height="20" as="geometry" />
        </mxCell>
        <mxCell id="Au5Fy73LcGvytUm_-_bz-12" value="&lt;span style=&quot;text-align: center; background-color: initial;&quot;&gt;+ runCleanseProcess ()&lt;/span&gt;" style="text;html=1;strokeColor=none;fillColor=none;align=left;verticalAlign=middle;spacingLeft=4;spacingRight=4;overflow=hidden;rotatable=0;points=[[0,0.5],[1,0.5]];portConstraint=eastwest;whiteSpace=wrap;" vertex="1" parent="Au5Fy73LcGvytUm_-_bz-7">
          <mxGeometry y="150" width="268" height="20" as="geometry" />
        </mxCell>
        <mxCell id="Au5Fy73LcGvytUm_-_bz-13" value="&lt;span style=&quot;text-align: center; background-color: initial;&quot;&gt;+ runAnonymizingProcess ()&lt;/span&gt;" style="text;html=1;strokeColor=none;fillColor=none;align=left;verticalAlign=middle;spacingLeft=4;spacingRight=4;overflow=hidden;rotatable=0;points=[[0,0.5],[1,0.5]];portConstraint=eastwest;whiteSpace=wrap;" vertex="1" parent="Au5Fy73LcGvytUm_-_bz-7">
          <mxGeometry y="170" width="268" height="20" as="geometry" />
        </mxCell>
        <mxCell id="Au5Fy73LcGvytUm_-_bz-14" value="&lt;span style=&quot;text-align: center; background-color: initial;&quot;&gt;+ runTransformingProcess ()&lt;/span&gt;" style="text;html=1;strokeColor=none;fillColor=none;align=left;verticalAlign=middle;spacingLeft=4;spacingRight=4;overflow=hidden;rotatable=0;points=[[0,0.5],[1,0.5]];portConstraint=eastwest;whiteSpace=wrap;" vertex="1" parent="Au5Fy73LcGvytUm_-_bz-7">
          <mxGeometry y="190" width="268" height="20" as="geometry" />
        </mxCell>
        <mxCell id="Au5Fy73LcGvytUm_-_bz-15" value="&lt;span style=&quot;text-align: center; background-color: initial;&quot;&gt;+ runMergingProcess ()&lt;/span&gt;" style="text;html=1;strokeColor=none;fillColor=none;align=left;verticalAlign=middle;spacingLeft=4;spacingRight=4;overflow=hidden;rotatable=0;points=[[0,0.5],[1,0.5]];portConstraint=eastwest;whiteSpace=wrap;" vertex="1" parent="Au5Fy73LcGvytUm_-_bz-7">
          <mxGeometry y="210" width="268" height="20" as="geometry" />
        </mxCell>
        <mxCell id="Au5Fy73LcGvytUm_-_bz-16" value="&lt;span style=&quot;text-align: center; background-color: initial;&quot;&gt;+ returnDataset()&lt;/span&gt;" style="text;html=1;strokeColor=none;fillColor=none;align=left;verticalAlign=middle;spacingLeft=4;spacingRight=4;overflow=hidden;rotatable=0;points=[[0,0.5],[1,0.5]];portConstraint=eastwest;whiteSpace=wrap;" vertex="1" parent="Au5Fy73LcGvytUm_-_bz-7">
          <mxGeometry y="230" width="268" height="20" as="geometry" />
        </mxCell>
        <mxCell id="Au5Fy73LcGvytUm_-_bz-17" value="&lt;span style=&quot;text-align: center; background-color: initial;&quot;&gt;+ saveDataset()&lt;/span&gt;" style="text;html=1;strokeColor=none;fillColor=none;align=left;verticalAlign=middle;spacingLeft=4;spacingRight=4;overflow=hidden;rotatable=0;points=[[0,0.5],[1,0.5]];portConstraint=eastwest;whiteSpace=wrap;" vertex="1" parent="Au5Fy73LcGvytUm_-_bz-7">
          <mxGeometry y="250" width="268" height="20" as="geometry" />
        </mxCell>
        <mxCell id="Au5Fy73LcGvytUm_-_bz-18" value="&lt;span style=&quot;text-align: center; background-color: initial;&quot;&gt;+ returnStatus()&lt;/span&gt;" style="text;html=1;strokeColor=none;fillColor=none;align=left;verticalAlign=middle;spacingLeft=4;spacingRight=4;overflow=hidden;rotatable=0;points=[[0,0.5],[1,0.5]];portConstraint=eastwest;whiteSpace=wrap;" vertex="1" parent="Au5Fy73LcGvytUm_-_bz-7">
          <mxGeometry y="270" width="268" height="20" as="geometry" />
        </mxCell>
        <mxCell id="YmsPEhmeXx43-MYh7PNv-260" value="&lt;span style=&quot;text-align: center; background-color: initial;&quot;&gt;+ restartService()&lt;/span&gt;" style="text;html=1;strokeColor=none;fillColor=none;align=left;verticalAlign=middle;spacingLeft=4;spacingRight=4;overflow=hidden;rotatable=0;points=[[0,0.5],[1,0.5]];portConstraint=eastwest;whiteSpace=wrap;" vertex="1" parent="Au5Fy73LcGvytUm_-_bz-7">
          <mxGeometry y="290" width="268" height="20" as="geometry" />
        </mxCell>
        <mxCell id="YmsPEhmeXx43-MYh7PNv-261" value="&lt;span style=&quot;text-align: center; background-color: initial;&quot;&gt;+ terminateService()&lt;/span&gt;" style="text;html=1;strokeColor=none;fillColor=none;align=left;verticalAlign=middle;spacingLeft=4;spacingRight=4;overflow=hidden;rotatable=0;points=[[0,0.5],[1,0.5]];portConstraint=eastwest;whiteSpace=wrap;" vertex="1" parent="Au5Fy73LcGvytUm_-_bz-7">
          <mxGeometry y="310" width="268" height="20" as="geometry" />
        </mxCell>
        <mxCell id="YmsPEhmeXx43-MYh7PNv-262" value="&lt;span style=&quot;text-align: center; background-color: initial;&quot;&gt;+ runTestSet()&lt;/span&gt;" style="text;html=1;strokeColor=none;fillColor=none;align=left;verticalAlign=middle;spacingLeft=4;spacingRight=4;overflow=hidden;rotatable=0;points=[[0,0.5],[1,0.5]];portConstraint=eastwest;whiteSpace=wrap;" vertex="1" parent="Au5Fy73LcGvytUm_-_bz-7">
          <mxGeometry y="330" width="268" height="20" as="geometry" />
        </mxCell>
        <mxCell id="YmsPEhmeXx43-MYh7PNv-263" value="&lt;span style=&quot;text-align: center; background-color: initial;&quot;&gt;+ getDescriptionEntities()&lt;/span&gt;" style="text;html=1;strokeColor=none;fillColor=none;align=left;verticalAlign=middle;spacingLeft=4;spacingRight=4;overflow=hidden;rotatable=0;points=[[0,0.5],[1,0.5]];portConstraint=eastwest;whiteSpace=wrap;" vertex="1" parent="Au5Fy73LcGvytUm_-_bz-7">
          <mxGeometry y="350" width="268" height="20" as="geometry" />
        </mxCell>
        <mxCell id="nyeCLd6V4OY8-Zb01Z_Q-61" style="edgeStyle=orthogonalEdgeStyle;rounded=0;orthogonalLoop=1;jettySize=auto;html=1;startArrow=diamond;startFill=1;" edge="1" parent="1" source="nyeCLd6V4OY8-Zb01Z_Q-21" target="nyeCLd6V4OY8-Zb01Z_Q-16">
          <mxGeometry relative="1" as="geometry">
            <Array as="points">
              <mxPoint x="749" y="1187" />
              <mxPoint x="749" y="1187" />
            </Array>
          </mxGeometry>
        </mxCell>
        <mxCell id="nyeCLd6V4OY8-Zb01Z_Q-21" value="&amp;lt;&amp;lt;entity&amp;gt;&amp;gt;&lt;br&gt;&lt;div&gt;&lt;b&gt;Config Entity&lt;/b&gt;&lt;/div&gt;" style="swimlane;fontStyle=0;align=center;verticalAlign=top;childLayout=stackLayout;horizontal=1;startSize=42;horizontalStack=0;resizeParent=1;resizeParentMax=0;resizeLast=0;collapsible=0;marginBottom=0;html=1;whiteSpace=wrap;" vertex="1" parent="1">
          <mxGeometry x="577" y="1244" width="344" height="170" as="geometry" />
        </mxCell>
        <mxCell id="nyeCLd6V4OY8-Zb01Z_Q-22" value="- pathForDatabaseUrl : String" style="text;html=1;strokeColor=none;fillColor=none;align=left;verticalAlign=middle;spacingLeft=4;spacingRight=4;overflow=hidden;rotatable=0;points=[[0,0.5],[1,0.5]];portConstraint=eastwest;whiteSpace=wrap;" vertex="1" parent="nyeCLd6V4OY8-Zb01Z_Q-21">
          <mxGeometry y="42" width="344" height="20" as="geometry" />
        </mxCell>
        <mxCell id="nyeCLd6V4OY8-Zb01Z_Q-23" value="- pathForDatabaseLogin : String" style="text;html=1;strokeColor=none;fillColor=none;align=left;verticalAlign=middle;spacingLeft=4;spacingRight=4;overflow=hidden;rotatable=0;points=[[0,0.5],[1,0.5]];portConstraint=eastwest;whiteSpace=wrap;" vertex="1" parent="nyeCLd6V4OY8-Zb01Z_Q-21">
          <mxGeometry y="62" width="344" height="20" as="geometry" />
        </mxCell>
        <mxCell id="nyeCLd6V4OY8-Zb01Z_Q-27" value="- pathForDatabasePassword : String" style="text;html=1;strokeColor=none;fillColor=none;align=left;verticalAlign=middle;spacingLeft=4;spacingRight=4;overflow=hidden;rotatable=0;points=[[0,0.5],[1,0.5]];portConstraint=eastwest;whiteSpace=wrap;" vertex="1" parent="nyeCLd6V4OY8-Zb01Z_Q-21">
          <mxGeometry y="82" width="344" height="20" as="geometry" />
        </mxCell>
        <mxCell id="nyeCLd6V4OY8-Zb01Z_Q-28" value="- pathForS3Password : String" style="text;html=1;strokeColor=none;fillColor=none;align=left;verticalAlign=middle;spacingLeft=4;spacingRight=4;overflow=hidden;rotatable=0;points=[[0,0.5],[1,0.5]];portConstraint=eastwest;whiteSpace=wrap;" vertex="1" parent="nyeCLd6V4OY8-Zb01Z_Q-21">
          <mxGeometry y="102" width="344" height="20" as="geometry" />
        </mxCell>
        <mxCell id="nyeCLd6V4OY8-Zb01Z_Q-29" value="- pathForS3User : String" style="text;html=1;strokeColor=none;fillColor=none;align=left;verticalAlign=middle;spacingLeft=4;spacingRight=4;overflow=hidden;rotatable=0;points=[[0,0.5],[1,0.5]];portConstraint=eastwest;whiteSpace=wrap;" vertex="1" parent="nyeCLd6V4OY8-Zb01Z_Q-21">
          <mxGeometry y="122" width="344" height="20" as="geometry" />
        </mxCell>
        <mxCell id="nyeCLd6V4OY8-Zb01Z_Q-30" value="- pathForS3AccessData: String" style="text;html=1;strokeColor=none;fillColor=none;align=left;verticalAlign=middle;spacingLeft=4;spacingRight=4;overflow=hidden;rotatable=0;points=[[0,0.5],[1,0.5]];portConstraint=eastwest;whiteSpace=wrap;" vertex="1" parent="nyeCLd6V4OY8-Zb01Z_Q-21">
          <mxGeometry y="142" width="344" height="20" as="geometry" />
        </mxCell>
        <mxCell id="nyeCLd6V4OY8-Zb01Z_Q-26" value="" style="line;strokeWidth=1;fillColor=none;align=left;verticalAlign=middle;spacingTop=-1;spacingLeft=3;spacingRight=3;rotatable=0;labelPosition=right;points=[];portConstraint=eastwest;" vertex="1" parent="nyeCLd6V4OY8-Zb01Z_Q-21">
          <mxGeometry y="162" width="344" height="8" as="geometry" />
        </mxCell>
        <mxCell id="Au5Fy73LcGvytUm_-_bz-49" style="edgeStyle=orthogonalEdgeStyle;rounded=0;orthogonalLoop=1;jettySize=auto;html=1;endArrow=none;endFill=0;" edge="1" parent="1" source="Au5Fy73LcGvytUm_-_bz-27" target="Au5Fy73LcGvytUm_-_bz-7">
          <mxGeometry relative="1" as="geometry">
            <Array as="points">
              <mxPoint x="-31" y="580" />
              <mxPoint x="-31" y="140" />
            </Array>
          </mxGeometry>
        </mxCell>
        <mxCell id="Au5Fy73LcGvytUm_-_bz-135" value="0..*" style="edgeLabel;html=1;align=center;verticalAlign=middle;resizable=0;points=[];" vertex="1" connectable="0" parent="Au5Fy73LcGvytUm_-_bz-49">
          <mxGeometry x="-0.9497" y="1" relative="1" as="geometry">
            <mxPoint as="offset" />
          </mxGeometry>
        </mxCell>
        <mxCell id="Au5Fy73LcGvytUm_-_bz-27" value="&amp;lt;&amp;lt;root&amp;gt;&amp;gt;&lt;br&gt;&lt;div&gt;&lt;b&gt;Extract Process Controller&lt;/b&gt;&lt;br&gt;&lt;/div&gt;" style="swimlane;fontStyle=0;align=center;verticalAlign=top;childLayout=stackLayout;horizontal=1;startSize=42;horizontalStack=0;resizeParent=1;resizeParentMax=0;resizeLast=0;collapsible=0;marginBottom=0;html=1;whiteSpace=wrap;" vertex="1" parent="1">
          <mxGeometry x="-420" y="560" width="268" height="128" as="geometry" />
        </mxCell>
        <mxCell id="Au5Fy73LcGvytUm_-_bz-28" value="- extractProcessService: Extract Process Service" style="text;html=1;strokeColor=none;fillColor=none;align=left;verticalAlign=middle;spacingLeft=4;spacingRight=4;overflow=hidden;rotatable=0;points=[[0,0.5],[1,0.5]];portConstraint=eastwest;whiteSpace=wrap;" vertex="1" parent="Au5Fy73LcGvytUm_-_bz-27">
          <mxGeometry y="42" width="268" height="38" as="geometry" />
        </mxCell>
        <mxCell id="Au5Fy73LcGvytUm_-_bz-29" value="" style="line;strokeWidth=1;fillColor=none;align=left;verticalAlign=middle;spacingTop=-1;spacingLeft=3;spacingRight=3;rotatable=0;labelPosition=right;points=[];portConstraint=eastwest;" vertex="1" parent="Au5Fy73LcGvytUm_-_bz-27">
          <mxGeometry y="80" width="268" height="8" as="geometry" />
        </mxCell>
        <mxCell id="Au5Fy73LcGvytUm_-_bz-31" value="&lt;span style=&quot;text-align: center; background-color: initial;&quot;&gt;+ runExtractProcessService()&lt;/span&gt;" style="text;html=1;strokeColor=none;fillColor=none;align=left;verticalAlign=middle;spacingLeft=4;spacingRight=4;overflow=hidden;rotatable=0;points=[[0,0.5],[1,0.5]];portConstraint=eastwest;whiteSpace=wrap;" vertex="1" parent="Au5Fy73LcGvytUm_-_bz-27">
          <mxGeometry y="88" width="268" height="20" as="geometry" />
        </mxCell>
        <mxCell id="Au5Fy73LcGvytUm_-_bz-32" value="&lt;span style=&quot;text-align: center; background-color: initial;&quot;&gt;+ returnExtractedData()&lt;/span&gt;" style="text;html=1;strokeColor=none;fillColor=none;align=left;verticalAlign=middle;spacingLeft=4;spacingRight=4;overflow=hidden;rotatable=0;points=[[0,0.5],[1,0.5]];portConstraint=eastwest;whiteSpace=wrap;" vertex="1" parent="Au5Fy73LcGvytUm_-_bz-27">
          <mxGeometry y="108" width="268" height="20" as="geometry" />
        </mxCell>
        <mxCell id="Au5Fy73LcGvytUm_-_bz-50" style="edgeStyle=orthogonalEdgeStyle;rounded=0;orthogonalLoop=1;jettySize=auto;html=1;endArrow=diamondThin;endFill=1;" edge="1" parent="1" source="Au5Fy73LcGvytUm_-_bz-38" target="Au5Fy73LcGvytUm_-_bz-27">
          <mxGeometry relative="1" as="geometry">
            <Array as="points">
              <mxPoint x="-476" y="620" />
              <mxPoint x="-476" y="580" />
            </Array>
          </mxGeometry>
        </mxCell>
        <mxCell id="Au5Fy73LcGvytUm_-_bz-119" value="1" style="edgeLabel;html=1;align=center;verticalAlign=middle;resizable=0;points=[];" vertex="1" connectable="0" parent="Au5Fy73LcGvytUm_-_bz-50">
          <mxGeometry x="0.6774" y="-1" relative="1" as="geometry">
            <mxPoint x="4" y="-7" as="offset" />
          </mxGeometry>
        </mxCell>
        <mxCell id="Au5Fy73LcGvytUm_-_bz-120" value="1" style="edgeLabel;html=1;align=center;verticalAlign=middle;resizable=0;points=[];" vertex="1" connectable="0" parent="Au5Fy73LcGvytUm_-_bz-50">
          <mxGeometry x="-0.7382" relative="1" as="geometry">
            <mxPoint x="-8" y="-10" as="offset" />
          </mxGeometry>
        </mxCell>
        <mxCell id="Au5Fy73LcGvytUm_-_bz-38" value="&amp;lt;&amp;lt;service&amp;gt;&amp;gt;&lt;br&gt;&lt;div&gt;&lt;b&gt;Extract Process Service&lt;/b&gt;&lt;br&gt;&lt;/div&gt;" style="swimlane;fontStyle=0;align=center;verticalAlign=top;childLayout=stackLayout;horizontal=1;startSize=42;horizontalStack=0;resizeParent=1;resizeParentMax=0;resizeLast=0;collapsible=0;marginBottom=0;html=1;whiteSpace=wrap;" vertex="1" parent="1">
          <mxGeometry x="-710" y="595" width="178" height="90" as="geometry" />
        </mxCell>
        <mxCell id="Au5Fy73LcGvytUm_-_bz-40" value="" style="line;strokeWidth=1;fillColor=none;align=left;verticalAlign=middle;spacingTop=-1;spacingLeft=3;spacingRight=3;rotatable=0;labelPosition=right;points=[];portConstraint=eastwest;" vertex="1" parent="Au5Fy73LcGvytUm_-_bz-38">
          <mxGeometry y="42" width="178" height="8" as="geometry" />
        </mxCell>
        <mxCell id="Au5Fy73LcGvytUm_-_bz-41" value="&lt;span style=&quot;text-align: center; background-color: initial;&quot;&gt;+ unifyTheDataFormat()&lt;/span&gt;" style="text;html=1;strokeColor=none;fillColor=none;align=left;verticalAlign=middle;spacingLeft=4;spacingRight=4;overflow=hidden;rotatable=0;points=[[0,0.5],[1,0.5]];portConstraint=eastwest;whiteSpace=wrap;" vertex="1" parent="Au5Fy73LcGvytUm_-_bz-38">
          <mxGeometry y="50" width="178" height="20" as="geometry" />
        </mxCell>
        <mxCell id="Au5Fy73LcGvytUm_-_bz-46" value="&lt;span style=&quot;text-align: center; background-color: initial;&quot;&gt;+ returnExtractedData()&lt;/span&gt;" style="text;html=1;strokeColor=none;fillColor=none;align=left;verticalAlign=middle;spacingLeft=4;spacingRight=4;overflow=hidden;rotatable=0;points=[[0,0.5],[1,0.5]];portConstraint=eastwest;whiteSpace=wrap;" vertex="1" parent="Au5Fy73LcGvytUm_-_bz-38">
          <mxGeometry y="70" width="178" height="20" as="geometry" />
        </mxCell>
        <mxCell id="Au5Fy73LcGvytUm_-_bz-62" style="edgeStyle=orthogonalEdgeStyle;rounded=0;orthogonalLoop=1;jettySize=auto;html=1;endArrow=none;endFill=0;" edge="1" parent="1" source="Au5Fy73LcGvytUm_-_bz-51" target="Au5Fy73LcGvytUm_-_bz-7">
          <mxGeometry relative="1" as="geometry">
            <Array as="points">
              <mxPoint x="-31" y="410" />
              <mxPoint x="-31" y="140" />
            </Array>
          </mxGeometry>
        </mxCell>
        <mxCell id="Au5Fy73LcGvytUm_-_bz-136" value="0..*" style="edgeLabel;html=1;align=center;verticalAlign=middle;resizable=0;points=[];" vertex="1" connectable="0" parent="Au5Fy73LcGvytUm_-_bz-62">
          <mxGeometry x="-0.9411" y="1" relative="1" as="geometry">
            <mxPoint as="offset" />
          </mxGeometry>
        </mxCell>
        <mxCell id="Au5Fy73LcGvytUm_-_bz-51" value="&amp;lt;&amp;lt;root&amp;gt;&amp;gt;&lt;br&gt;&lt;div&gt;&lt;b&gt;Dataset controller&lt;/b&gt;&lt;br&gt;&lt;/div&gt;" style="swimlane;fontStyle=0;align=center;verticalAlign=top;childLayout=stackLayout;horizontal=1;startSize=42;horizontalStack=0;resizeParent=1;resizeParentMax=0;resizeLast=0;collapsible=0;marginBottom=0;html=1;whiteSpace=wrap;" vertex="1" parent="1">
          <mxGeometry x="-420" y="387" width="268" height="138" as="geometry" />
        </mxCell>
        <mxCell id="Au5Fy73LcGvytUm_-_bz-52" value="- storageService: Storage Service" style="text;html=1;strokeColor=none;fillColor=none;align=left;verticalAlign=middle;spacingLeft=4;spacingRight=4;overflow=hidden;rotatable=0;points=[[0,0.5],[1,0.5]];portConstraint=eastwest;whiteSpace=wrap;" vertex="1" parent="Au5Fy73LcGvytUm_-_bz-51">
          <mxGeometry y="42" width="268" height="28" as="geometry" />
        </mxCell>
        <mxCell id="Au5Fy73LcGvytUm_-_bz-53" value="" style="line;strokeWidth=1;fillColor=none;align=left;verticalAlign=middle;spacingTop=-1;spacingLeft=3;spacingRight=3;rotatable=0;labelPosition=right;points=[];portConstraint=eastwest;" vertex="1" parent="Au5Fy73LcGvytUm_-_bz-51">
          <mxGeometry y="70" width="268" height="8" as="geometry" />
        </mxCell>
        <mxCell id="Au5Fy73LcGvytUm_-_bz-54" value="&lt;span style=&quot;text-align: center; background-color: initial;&quot;&gt;+ getPrevDataset()&lt;/span&gt;" style="text;html=1;strokeColor=none;fillColor=none;align=left;verticalAlign=middle;spacingLeft=4;spacingRight=4;overflow=hidden;rotatable=0;points=[[0,0.5],[1,0.5]];portConstraint=eastwest;whiteSpace=wrap;" vertex="1" parent="Au5Fy73LcGvytUm_-_bz-51">
          <mxGeometry y="78" width="268" height="20" as="geometry" />
        </mxCell>
        <mxCell id="Au5Fy73LcGvytUm_-_bz-55" value="&lt;span style=&quot;text-align: center; background-color: initial;&quot;&gt;+ saveDataset()&lt;/span&gt;" style="text;html=1;strokeColor=none;fillColor=none;align=left;verticalAlign=middle;spacingLeft=4;spacingRight=4;overflow=hidden;rotatable=0;points=[[0,0.5],[1,0.5]];portConstraint=eastwest;whiteSpace=wrap;" vertex="1" parent="Au5Fy73LcGvytUm_-_bz-51">
          <mxGeometry y="98" width="268" height="20" as="geometry" />
        </mxCell>
        <mxCell id="Au5Fy73LcGvytUm_-_bz-56" value="&lt;span style=&quot;text-align: center; background-color: initial;&quot;&gt;+ returnPrevDataset()&lt;/span&gt;" style="text;html=1;strokeColor=none;fillColor=none;align=left;verticalAlign=middle;spacingLeft=4;spacingRight=4;overflow=hidden;rotatable=0;points=[[0,0.5],[1,0.5]];portConstraint=eastwest;whiteSpace=wrap;" vertex="1" parent="Au5Fy73LcGvytUm_-_bz-51">
          <mxGeometry y="118" width="268" height="20" as="geometry" />
        </mxCell>
        <mxCell id="Au5Fy73LcGvytUm_-_bz-94" style="edgeStyle=orthogonalEdgeStyle;rounded=0;orthogonalLoop=1;jettySize=auto;html=1;endArrow=none;endFill=0;" edge="1" parent="1" source="YmsPEhmeXx43-MYh7PNv-265" target="Au5Fy73LcGvytUm_-_bz-7">
          <mxGeometry relative="1" as="geometry">
            <Array as="points">
              <mxPoint x="-30" y="1360" />
              <mxPoint x="-30" y="140" />
            </Array>
          </mxGeometry>
        </mxCell>
        <mxCell id="Au5Fy73LcGvytUm_-_bz-129" value="0..*" style="edgeLabel;html=1;align=center;verticalAlign=middle;resizable=0;points=[];" vertex="1" connectable="0" parent="Au5Fy73LcGvytUm_-_bz-94">
          <mxGeometry x="-0.9785" y="2" relative="1" as="geometry">
            <mxPoint as="offset" />
          </mxGeometry>
        </mxCell>
        <mxCell id="YmsPEhmeXx43-MYh7PNv-265" value="&amp;lt;&amp;lt;root&amp;gt;&amp;gt;&lt;br&gt;&lt;div&gt;&lt;b&gt;Merge Process Controller&lt;/b&gt;&lt;br&gt;&lt;/div&gt;" style="swimlane;fontStyle=0;align=center;verticalAlign=top;childLayout=stackLayout;horizontal=1;startSize=42;horizontalStack=0;resizeParent=1;resizeParentMax=0;resizeLast=0;collapsible=0;marginBottom=0;html=1;whiteSpace=wrap;" vertex="1" parent="1">
          <mxGeometry x="-436" y="1339" width="268" height="118" as="geometry" />
        </mxCell>
        <mxCell id="YmsPEhmeXx43-MYh7PNv-266" value="- mergeProcessService: Merge Process Service" style="text;html=1;strokeColor=none;fillColor=none;align=left;verticalAlign=middle;spacingLeft=4;spacingRight=4;overflow=hidden;rotatable=0;points=[[0,0.5],[1,0.5]];portConstraint=eastwest;whiteSpace=wrap;" vertex="1" parent="YmsPEhmeXx43-MYh7PNv-265">
          <mxGeometry y="42" width="268" height="28" as="geometry" />
        </mxCell>
        <mxCell id="YmsPEhmeXx43-MYh7PNv-267" value="" style="line;strokeWidth=1;fillColor=none;align=left;verticalAlign=middle;spacingTop=-1;spacingLeft=3;spacingRight=3;rotatable=0;labelPosition=right;points=[];portConstraint=eastwest;" vertex="1" parent="YmsPEhmeXx43-MYh7PNv-265">
          <mxGeometry y="70" width="268" height="8" as="geometry" />
        </mxCell>
        <mxCell id="YmsPEhmeXx43-MYh7PNv-269" value="&lt;span style=&quot;text-align: center; background-color: initial;&quot;&gt;+ runMergeProcess Service()&lt;/span&gt;" style="text;html=1;strokeColor=none;fillColor=none;align=left;verticalAlign=middle;spacingLeft=4;spacingRight=4;overflow=hidden;rotatable=0;points=[[0,0.5],[1,0.5]];portConstraint=eastwest;whiteSpace=wrap;" vertex="1" parent="YmsPEhmeXx43-MYh7PNv-265">
          <mxGeometry y="78" width="268" height="20" as="geometry" />
        </mxCell>
        <mxCell id="YmsPEhmeXx43-MYh7PNv-270" value="&lt;span style=&quot;text-align: center; background-color: initial;&quot;&gt;+ returnMergedData()&lt;/span&gt;" style="text;html=1;strokeColor=none;fillColor=none;align=left;verticalAlign=middle;spacingLeft=4;spacingRight=4;overflow=hidden;rotatable=0;points=[[0,0.5],[1,0.5]];portConstraint=eastwest;whiteSpace=wrap;" vertex="1" parent="YmsPEhmeXx43-MYh7PNv-265">
          <mxGeometry y="98" width="268" height="20" as="geometry" />
        </mxCell>
        <mxCell id="Au5Fy73LcGvytUm_-_bz-61" style="edgeStyle=orthogonalEdgeStyle;rounded=0;orthogonalLoop=1;jettySize=auto;html=1;endArrow=diamondThin;endFill=1;" edge="1" parent="1" source="Au5Fy73LcGvytUm_-_bz-57" target="Au5Fy73LcGvytUm_-_bz-51">
          <mxGeometry relative="1" as="geometry">
            <Array as="points">
              <mxPoint x="-476" y="440" />
              <mxPoint x="-476" y="410" />
            </Array>
          </mxGeometry>
        </mxCell>
        <mxCell id="Au5Fy73LcGvytUm_-_bz-117" value="1" style="edgeLabel;html=1;align=center;verticalAlign=middle;resizable=0;points=[];" vertex="1" connectable="0" parent="Au5Fy73LcGvytUm_-_bz-61">
          <mxGeometry x="0.7227" y="1" relative="1" as="geometry">
            <mxPoint x="4" y="-15" as="offset" />
          </mxGeometry>
        </mxCell>
        <mxCell id="Au5Fy73LcGvytUm_-_bz-118" value="1" style="edgeLabel;html=1;align=center;verticalAlign=middle;resizable=0;points=[];" vertex="1" connectable="0" parent="Au5Fy73LcGvytUm_-_bz-61">
          <mxGeometry x="-0.8169" y="-3" relative="1" as="geometry">
            <mxPoint y="-13" as="offset" />
          </mxGeometry>
        </mxCell>
        <mxCell id="Au5Fy73LcGvytUm_-_bz-57" value="&amp;lt;&amp;lt;service&amp;gt;&amp;gt;&lt;br&gt;&lt;div&gt;&lt;b&gt;Storage Service&lt;/b&gt;&lt;br&gt;&lt;/div&gt;" style="swimlane;fontStyle=0;align=center;verticalAlign=top;childLayout=stackLayout;horizontal=1;startSize=42;horizontalStack=0;resizeParent=1;resizeParentMax=0;resizeLast=0;collapsible=0;marginBottom=0;html=1;whiteSpace=wrap;" vertex="1" parent="1">
          <mxGeometry x="-710" y="424" width="178" height="90" as="geometry" />
        </mxCell>
        <mxCell id="Au5Fy73LcGvytUm_-_bz-58" value="" style="line;strokeWidth=1;fillColor=none;align=left;verticalAlign=middle;spacingTop=-1;spacingLeft=3;spacingRight=3;rotatable=0;labelPosition=right;points=[];portConstraint=eastwest;" vertex="1" parent="Au5Fy73LcGvytUm_-_bz-57">
          <mxGeometry y="42" width="178" height="8" as="geometry" />
        </mxCell>
        <mxCell id="Au5Fy73LcGvytUm_-_bz-59" value="&lt;span style=&quot;text-align: center; background-color: initial;&quot;&gt;+ saveDataset()&lt;/span&gt;" style="text;html=1;strokeColor=none;fillColor=none;align=left;verticalAlign=middle;spacingLeft=4;spacingRight=4;overflow=hidden;rotatable=0;points=[[0,0.5],[1,0.5]];portConstraint=eastwest;whiteSpace=wrap;" vertex="1" parent="Au5Fy73LcGvytUm_-_bz-57">
          <mxGeometry y="50" width="178" height="20" as="geometry" />
        </mxCell>
        <mxCell id="Au5Fy73LcGvytUm_-_bz-60" value="&lt;span style=&quot;text-align: center; background-color: initial;&quot;&gt;+ returnDataset()&lt;/span&gt;" style="text;html=1;strokeColor=none;fillColor=none;align=left;verticalAlign=middle;spacingLeft=4;spacingRight=4;overflow=hidden;rotatable=0;points=[[0,0.5],[1,0.5]];portConstraint=eastwest;whiteSpace=wrap;" vertex="1" parent="Au5Fy73LcGvytUm_-_bz-57">
          <mxGeometry y="70" width="178" height="20" as="geometry" />
        </mxCell>
        <mxCell id="Au5Fy73LcGvytUm_-_bz-90" style="edgeStyle=orthogonalEdgeStyle;rounded=0;orthogonalLoop=1;jettySize=auto;html=1;endArrow=diamondThin;endFill=1;" edge="1" parent="1" source="YmsPEhmeXx43-MYh7PNv-271" target="YmsPEhmeXx43-MYh7PNv-265">
          <mxGeometry relative="1" as="geometry">
            <Array as="points">
              <mxPoint x="-484" y="1390" />
              <mxPoint x="-484" y="1360" />
            </Array>
          </mxGeometry>
        </mxCell>
        <mxCell id="Au5Fy73LcGvytUm_-_bz-127" value="1" style="edgeLabel;html=1;align=center;verticalAlign=middle;resizable=0;points=[];" vertex="1" connectable="0" parent="Au5Fy73LcGvytUm_-_bz-90">
          <mxGeometry x="0.6459" y="1" relative="1" as="geometry">
            <mxPoint x="9" y="-14" as="offset" />
          </mxGeometry>
        </mxCell>
        <mxCell id="Au5Fy73LcGvytUm_-_bz-128" value="1" style="edgeLabel;html=1;align=center;verticalAlign=middle;resizable=0;points=[];" vertex="1" connectable="0" parent="Au5Fy73LcGvytUm_-_bz-90">
          <mxGeometry x="-0.7608" y="-3" relative="1" as="geometry">
            <mxPoint x="-3" y="-13" as="offset" />
          </mxGeometry>
        </mxCell>
        <mxCell id="YmsPEhmeXx43-MYh7PNv-271" value="&amp;lt;&amp;lt;service&amp;gt;&amp;gt;&lt;br&gt;&lt;div&gt;&lt;b&gt;Merge Process Service&lt;/b&gt;&lt;br&gt;&lt;/div&gt;" style="swimlane;fontStyle=0;align=center;verticalAlign=top;childLayout=stackLayout;horizontal=1;startSize=42;horizontalStack=0;resizeParent=1;resizeParentMax=0;resizeLast=0;collapsible=0;marginBottom=0;html=1;whiteSpace=wrap;" vertex="1" parent="1">
          <mxGeometry x="-710" y="1367" width="178" height="90" as="geometry" />
        </mxCell>
        <mxCell id="YmsPEhmeXx43-MYh7PNv-272" value="" style="line;strokeWidth=1;fillColor=none;align=left;verticalAlign=middle;spacingTop=-1;spacingLeft=3;spacingRight=3;rotatable=0;labelPosition=right;points=[];portConstraint=eastwest;" vertex="1" parent="YmsPEhmeXx43-MYh7PNv-271">
          <mxGeometry y="42" width="178" height="8" as="geometry" />
        </mxCell>
        <mxCell id="YmsPEhmeXx43-MYh7PNv-273" value="&lt;span style=&quot;text-align: center; background-color: initial;&quot;&gt;+ mergeData()&lt;/span&gt;" style="text;html=1;strokeColor=none;fillColor=none;align=left;verticalAlign=middle;spacingLeft=4;spacingRight=4;overflow=hidden;rotatable=0;points=[[0,0.5],[1,0.5]];portConstraint=eastwest;whiteSpace=wrap;" vertex="1" parent="YmsPEhmeXx43-MYh7PNv-271">
          <mxGeometry y="50" width="178" height="20" as="geometry" />
        </mxCell>
        <mxCell id="YmsPEhmeXx43-MYh7PNv-274" value="&lt;span style=&quot;text-align: center; background-color: initial;&quot;&gt;+ returnMergedData()&lt;/span&gt;" style="text;html=1;strokeColor=none;fillColor=none;align=left;verticalAlign=middle;spacingLeft=4;spacingRight=4;overflow=hidden;rotatable=0;points=[[0,0.5],[1,0.5]];portConstraint=eastwest;whiteSpace=wrap;" vertex="1" parent="YmsPEhmeXx43-MYh7PNv-271">
          <mxGeometry y="70" width="178" height="20" as="geometry" />
        </mxCell>
        <mxCell id="Au5Fy73LcGvytUm_-_bz-64" value="&amp;lt;&amp;lt;root&amp;gt;&amp;gt;&lt;br&gt;&lt;div&gt;&lt;b&gt;Cleanse Process Controller&lt;/b&gt;&lt;br&gt;&lt;/div&gt;" style="swimlane;fontStyle=0;align=center;verticalAlign=top;childLayout=stackLayout;horizontal=1;startSize=42;horizontalStack=0;resizeParent=1;resizeParentMax=0;resizeLast=0;collapsible=0;marginBottom=0;html=1;whiteSpace=wrap;" vertex="1" parent="1">
          <mxGeometry x="-420" y="760" width="268" height="128" as="geometry" />
        </mxCell>
        <mxCell id="Au5Fy73LcGvytUm_-_bz-65" value="- cleanseProcess Service: Cleanse Process  Service" style="text;html=1;strokeColor=none;fillColor=none;align=left;verticalAlign=middle;spacingLeft=4;spacingRight=4;overflow=hidden;rotatable=0;points=[[0,0.5],[1,0.5]];portConstraint=eastwest;whiteSpace=wrap;" vertex="1" parent="Au5Fy73LcGvytUm_-_bz-64">
          <mxGeometry y="42" width="268" height="38" as="geometry" />
        </mxCell>
        <mxCell id="Au5Fy73LcGvytUm_-_bz-67" value="" style="line;strokeWidth=1;fillColor=none;align=left;verticalAlign=middle;spacingTop=-1;spacingLeft=3;spacingRight=3;rotatable=0;labelPosition=right;points=[];portConstraint=eastwest;" vertex="1" parent="Au5Fy73LcGvytUm_-_bz-64">
          <mxGeometry y="80" width="268" height="8" as="geometry" />
        </mxCell>
        <mxCell id="Au5Fy73LcGvytUm_-_bz-68" value="&lt;span style=&quot;text-align: center; background-color: initial;&quot;&gt;+ runCleanseProcessService()&lt;/span&gt;" style="text;html=1;strokeColor=none;fillColor=none;align=left;verticalAlign=middle;spacingLeft=4;spacingRight=4;overflow=hidden;rotatable=0;points=[[0,0.5],[1,0.5]];portConstraint=eastwest;whiteSpace=wrap;" vertex="1" parent="Au5Fy73LcGvytUm_-_bz-64">
          <mxGeometry y="88" width="268" height="20" as="geometry" />
        </mxCell>
        <mxCell id="Au5Fy73LcGvytUm_-_bz-69" value="&lt;span style=&quot;text-align: center; background-color: initial;&quot;&gt;+ returnCleasedData()&lt;/span&gt;" style="text;html=1;strokeColor=none;fillColor=none;align=left;verticalAlign=middle;spacingLeft=4;spacingRight=4;overflow=hidden;rotatable=0;points=[[0,0.5],[1,0.5]];portConstraint=eastwest;whiteSpace=wrap;" vertex="1" parent="Au5Fy73LcGvytUm_-_bz-64">
          <mxGeometry y="108" width="268" height="20" as="geometry" />
        </mxCell>
        <mxCell id="nyeCLd6V4OY8-Zb01Z_Q-34" value="&amp;lt;&amp;lt;root&amp;gt;&amp;gt;&lt;br&gt;&lt;span style=&quot;font-weight: 700;&quot;&gt;RDBMS/S3 config controller&lt;/span&gt;&lt;br&gt;&lt;div&gt;&lt;br&gt;&lt;/div&gt;" style="swimlane;fontStyle=0;align=center;verticalAlign=top;childLayout=stackLayout;horizontal=1;startSize=42;horizontalStack=0;resizeParent=1;resizeParentMax=0;resizeLast=0;collapsible=0;marginBottom=0;html=1;whiteSpace=wrap;" vertex="1" parent="1">
          <mxGeometry x="103" y="978" width="322" height="150" as="geometry" />
        </mxCell>
        <mxCell id="nyeCLd6V4OY8-Zb01Z_Q-35" value="- configurationService:&amp;nbsp;&lt;span style=&quot;font-weight: 700; text-align: center;&quot;&gt;Configuration&amp;nbsp;Service&lt;/span&gt;" style="text;html=1;strokeColor=none;fillColor=none;align=left;verticalAlign=middle;spacingLeft=4;spacingRight=4;overflow=hidden;rotatable=0;points=[[0,0.5],[1,0.5]];portConstraint=eastwest;whiteSpace=wrap;" vertex="1" parent="nyeCLd6V4OY8-Zb01Z_Q-34">
          <mxGeometry y="42" width="322" height="20" as="geometry" />
        </mxCell>
        <mxCell id="nyeCLd6V4OY8-Zb01Z_Q-46" value="- configuresService:&amp;nbsp;&lt;span style=&quot;font-weight: 700; text-align: center;&quot;&gt;RDBMS/S3 config service&lt;/span&gt;" style="text;html=1;strokeColor=none;fillColor=none;align=left;verticalAlign=middle;spacingLeft=4;spacingRight=4;overflow=hidden;rotatable=0;points=[[0,0.5],[1,0.5]];portConstraint=eastwest;whiteSpace=wrap;" vertex="1" parent="nyeCLd6V4OY8-Zb01Z_Q-34">
          <mxGeometry y="62" width="322" height="20" as="geometry" />
        </mxCell>
        <mxCell id="nyeCLd6V4OY8-Zb01Z_Q-36" value="" style="line;strokeWidth=1;fillColor=none;align=left;verticalAlign=middle;spacingTop=-1;spacingLeft=3;spacingRight=3;rotatable=0;labelPosition=right;points=[];portConstraint=eastwest;" vertex="1" parent="nyeCLd6V4OY8-Zb01Z_Q-34">
          <mxGeometry y="82" width="322" height="8" as="geometry" />
        </mxCell>
        <mxCell id="nyeCLd6V4OY8-Zb01Z_Q-37" value="- sendConfigRequest&lt;span style=&quot;font-family: Arial, sans-serif; font-size: 14.6667px; white-space-collapse: preserve;&quot;&gt;()&lt;/span&gt;" style="text;html=1;strokeColor=none;fillColor=none;align=left;verticalAlign=middle;spacingLeft=4;spacingRight=4;overflow=hidden;rotatable=0;points=[[0,0.5],[1,0.5]];portConstraint=eastwest;whiteSpace=wrap;" vertex="1" parent="nyeCLd6V4OY8-Zb01Z_Q-34">
          <mxGeometry y="90" width="322" height="20" as="geometry" />
        </mxCell>
        <mxCell id="nyeCLd6V4OY8-Zb01Z_Q-47" value="- runConnectionProcess&lt;span style=&quot;font-family: Arial, sans-serif; font-size: 14.6667px; white-space-collapse: preserve;&quot;&gt;()&lt;/span&gt;" style="text;html=1;strokeColor=none;fillColor=none;align=left;verticalAlign=middle;spacingLeft=4;spacingRight=4;overflow=hidden;rotatable=0;points=[[0,0.5],[1,0.5]];portConstraint=eastwest;whiteSpace=wrap;" vertex="1" parent="nyeCLd6V4OY8-Zb01Z_Q-34">
          <mxGeometry y="110" width="322" height="20" as="geometry" />
        </mxCell>
        <mxCell id="nyeCLd6V4OY8-Zb01Z_Q-38" value="- returnConnectionStatus&lt;span style=&quot;font-family: Arial, sans-serif; font-size: 14.6667px; white-space-collapse: preserve;&quot;&gt;()&lt;/span&gt;" style="text;html=1;strokeColor=none;fillColor=none;align=left;verticalAlign=middle;spacingLeft=4;spacingRight=4;overflow=hidden;rotatable=0;points=[[0,0.5],[1,0.5]];portConstraint=eastwest;whiteSpace=wrap;" vertex="1" parent="nyeCLd6V4OY8-Zb01Z_Q-34">
          <mxGeometry y="130" width="322" height="20" as="geometry" />
        </mxCell>
        <mxCell id="Au5Fy73LcGvytUm_-_bz-93" style="edgeStyle=orthogonalEdgeStyle;rounded=0;orthogonalLoop=1;jettySize=auto;html=1;endArrow=none;endFill=0;" edge="1" parent="1" source="YmsPEhmeXx43-MYh7PNv-276" target="Au5Fy73LcGvytUm_-_bz-7">
          <mxGeometry relative="1" as="geometry">
            <Array as="points">
              <mxPoint x="-30" y="1190" />
              <mxPoint x="-30" y="140" />
            </Array>
          </mxGeometry>
        </mxCell>
        <mxCell id="Au5Fy73LcGvytUm_-_bz-130" value="0..*" style="edgeLabel;html=1;align=center;verticalAlign=middle;resizable=0;points=[];" vertex="1" connectable="0" parent="Au5Fy73LcGvytUm_-_bz-93">
          <mxGeometry x="-0.9834" y="-2" relative="1" as="geometry">
            <mxPoint x="2" as="offset" />
          </mxGeometry>
        </mxCell>
        <mxCell id="YmsPEhmeXx43-MYh7PNv-276" value="&amp;lt;&amp;lt;root&amp;gt;&amp;gt;&lt;br&gt;&lt;div&gt;&lt;b&gt;Transform Process Controller&lt;/b&gt;&lt;br&gt;&lt;/div&gt;" style="swimlane;fontStyle=0;align=center;verticalAlign=top;childLayout=stackLayout;horizontal=1;startSize=42;horizontalStack=0;resizeParent=1;resizeParentMax=0;resizeLast=0;collapsible=0;marginBottom=0;html=1;whiteSpace=wrap;" vertex="1" parent="1">
          <mxGeometry x="-433" y="1174" width="268" height="128" as="geometry" />
        </mxCell>
        <mxCell id="YmsPEhmeXx43-MYh7PNv-277" value="- transformProcessService: Transform Process Service" style="text;html=1;strokeColor=none;fillColor=none;align=left;verticalAlign=middle;spacingLeft=4;spacingRight=4;overflow=hidden;rotatable=0;points=[[0,0.5],[1,0.5]];portConstraint=eastwest;whiteSpace=wrap;" vertex="1" parent="YmsPEhmeXx43-MYh7PNv-276">
          <mxGeometry y="42" width="268" height="38" as="geometry" />
        </mxCell>
        <mxCell id="YmsPEhmeXx43-MYh7PNv-278" value="" style="line;strokeWidth=1;fillColor=none;align=left;verticalAlign=middle;spacingTop=-1;spacingLeft=3;spacingRight=3;rotatable=0;labelPosition=right;points=[];portConstraint=eastwest;" vertex="1" parent="YmsPEhmeXx43-MYh7PNv-276">
          <mxGeometry y="80" width="268" height="8" as="geometry" />
        </mxCell>
        <mxCell id="YmsPEhmeXx43-MYh7PNv-279" value="&lt;span style=&quot;text-align: center; background-color: initial;&quot;&gt;+ runTransformProcessService()&lt;/span&gt;" style="text;html=1;strokeColor=none;fillColor=none;align=left;verticalAlign=middle;spacingLeft=4;spacingRight=4;overflow=hidden;rotatable=0;points=[[0,0.5],[1,0.5]];portConstraint=eastwest;whiteSpace=wrap;" vertex="1" parent="YmsPEhmeXx43-MYh7PNv-276">
          <mxGeometry y="88" width="268" height="20" as="geometry" />
        </mxCell>
        <mxCell id="YmsPEhmeXx43-MYh7PNv-280" value="&lt;span style=&quot;text-align: center; background-color: initial;&quot;&gt;+ returnTransformedData()&lt;/span&gt;" style="text;html=1;strokeColor=none;fillColor=none;align=left;verticalAlign=middle;spacingLeft=4;spacingRight=4;overflow=hidden;rotatable=0;points=[[0,0.5],[1,0.5]];portConstraint=eastwest;whiteSpace=wrap;" vertex="1" parent="YmsPEhmeXx43-MYh7PNv-276">
          <mxGeometry y="108" width="268" height="20" as="geometry" />
        </mxCell>
        <mxCell id="Au5Fy73LcGvytUm_-_bz-74" style="edgeStyle=orthogonalEdgeStyle;rounded=0;orthogonalLoop=1;jettySize=auto;html=1;endArrow=diamondThin;endFill=1;" edge="1" parent="1" source="Au5Fy73LcGvytUm_-_bz-70" target="Au5Fy73LcGvytUm_-_bz-64">
          <mxGeometry relative="1" as="geometry">
            <Array as="points">
              <mxPoint x="-476" y="810" />
              <mxPoint x="-476" y="780" />
            </Array>
          </mxGeometry>
        </mxCell>
        <mxCell id="Au5Fy73LcGvytUm_-_bz-121" value="1" style="edgeLabel;html=1;align=center;verticalAlign=middle;resizable=0;points=[];" vertex="1" connectable="0" parent="Au5Fy73LcGvytUm_-_bz-74">
          <mxGeometry x="0.6935" y="-3" relative="1" as="geometry">
            <mxPoint y="-13" as="offset" />
          </mxGeometry>
        </mxCell>
        <mxCell id="Au5Fy73LcGvytUm_-_bz-122" value="1" style="edgeLabel;html=1;align=center;verticalAlign=middle;resizable=0;points=[];" vertex="1" connectable="0" parent="Au5Fy73LcGvytUm_-_bz-74">
          <mxGeometry x="-0.8169" y="-1" relative="1" as="geometry">
            <mxPoint y="-11" as="offset" />
          </mxGeometry>
        </mxCell>
        <mxCell id="Au5Fy73LcGvytUm_-_bz-70" value="&amp;lt;&amp;lt;service&amp;gt;&amp;gt;&lt;br&gt;&lt;div&gt;&lt;b&gt;Cleanse Process  Service&lt;/b&gt;&lt;br&gt;&lt;/div&gt;" style="swimlane;fontStyle=0;align=center;verticalAlign=top;childLayout=stackLayout;horizontal=1;startSize=42;horizontalStack=0;resizeParent=1;resizeParentMax=0;resizeLast=0;collapsible=0;marginBottom=0;html=1;whiteSpace=wrap;" vertex="1" parent="1">
          <mxGeometry x="-710" y="795" width="178" height="110" as="geometry" />
        </mxCell>
        <mxCell id="Au5Fy73LcGvytUm_-_bz-71" value="" style="line;strokeWidth=1;fillColor=none;align=left;verticalAlign=middle;spacingTop=-1;spacingLeft=3;spacingRight=3;rotatable=0;labelPosition=right;points=[];portConstraint=eastwest;" vertex="1" parent="Au5Fy73LcGvytUm_-_bz-70">
          <mxGeometry y="42" width="178" height="8" as="geometry" />
        </mxCell>
        <mxCell id="Au5Fy73LcGvytUm_-_bz-72" value="&lt;span style=&quot;text-align: center; background-color: initial;&quot;&gt;+ deleteIncorrectD&lt;/span&gt;&lt;span style=&quot;background-color: initial; text-align: center;&quot;&gt;ata()&lt;/span&gt;" style="text;html=1;strokeColor=none;fillColor=none;align=left;verticalAlign=middle;spacingLeft=4;spacingRight=4;overflow=hidden;rotatable=0;points=[[0,0.5],[1,0.5]];portConstraint=eastwest;whiteSpace=wrap;" vertex="1" parent="Au5Fy73LcGvytUm_-_bz-70">
          <mxGeometry y="50" width="178" height="20" as="geometry" />
        </mxCell>
        <mxCell id="Au5Fy73LcGvytUm_-_bz-75" value="&lt;span style=&quot;text-align: center; background-color: initial;&quot;&gt;+ f&lt;/span&gt;&lt;span style=&quot;background-color: initial; text-align: center;&quot;&gt;ulfillDataGaps()&lt;/span&gt;" style="text;html=1;strokeColor=none;fillColor=none;align=left;verticalAlign=middle;spacingLeft=4;spacingRight=4;overflow=hidden;rotatable=0;points=[[0,0.5],[1,0.5]];portConstraint=eastwest;whiteSpace=wrap;" vertex="1" parent="Au5Fy73LcGvytUm_-_bz-70">
          <mxGeometry y="70" width="178" height="20" as="geometry" />
        </mxCell>
        <mxCell id="Au5Fy73LcGvytUm_-_bz-73" value="&lt;span style=&quot;text-align: center; background-color: initial;&quot;&gt;+ returnCleansedData()&lt;/span&gt;" style="text;html=1;strokeColor=none;fillColor=none;align=left;verticalAlign=middle;spacingLeft=4;spacingRight=4;overflow=hidden;rotatable=0;points=[[0,0.5],[1,0.5]];portConstraint=eastwest;whiteSpace=wrap;" vertex="1" parent="Au5Fy73LcGvytUm_-_bz-70">
          <mxGeometry y="90" width="178" height="20" as="geometry" />
        </mxCell>
        <mxCell id="Au5Fy73LcGvytUm_-_bz-89" style="edgeStyle=orthogonalEdgeStyle;rounded=0;orthogonalLoop=1;jettySize=auto;html=1;endArrow=diamondThin;endFill=1;" edge="1" parent="1" source="YmsPEhmeXx43-MYh7PNv-281" target="YmsPEhmeXx43-MYh7PNv-276">
          <mxGeometry relative="1" as="geometry">
            <Array as="points">
              <mxPoint x="-483" y="1230" />
              <mxPoint x="-483" y="1200" />
            </Array>
          </mxGeometry>
        </mxCell>
        <mxCell id="Au5Fy73LcGvytUm_-_bz-125" value="1" style="edgeLabel;html=1;align=center;verticalAlign=middle;resizable=0;points=[];" vertex="1" connectable="0" parent="Au5Fy73LcGvytUm_-_bz-89">
          <mxGeometry x="0.7787" y="-2" relative="1" as="geometry">
            <mxPoint y="-12" as="offset" />
          </mxGeometry>
        </mxCell>
        <mxCell id="Au5Fy73LcGvytUm_-_bz-126" value="1" style="edgeLabel;html=1;align=center;verticalAlign=middle;resizable=0;points=[];" vertex="1" connectable="0" parent="Au5Fy73LcGvytUm_-_bz-89">
          <mxGeometry x="-0.8412" y="-2" relative="1" as="geometry">
            <mxPoint y="-12" as="offset" />
          </mxGeometry>
        </mxCell>
        <mxCell id="YmsPEhmeXx43-MYh7PNv-281" value="&amp;lt;&amp;lt;service&amp;gt;&amp;gt;&lt;br&gt;&lt;div&gt;&lt;b&gt;Transform Process Service&lt;/b&gt;&lt;br&gt;&lt;/div&gt;" style="swimlane;fontStyle=0;align=center;verticalAlign=top;childLayout=stackLayout;horizontal=1;startSize=42;horizontalStack=0;resizeParent=1;resizeParentMax=0;resizeLast=0;collapsible=0;marginBottom=0;html=1;whiteSpace=wrap;" vertex="1" parent="1">
          <mxGeometry x="-710" y="1212" width="178" height="90" as="geometry" />
        </mxCell>
        <mxCell id="YmsPEhmeXx43-MYh7PNv-282" value="" style="line;strokeWidth=1;fillColor=none;align=left;verticalAlign=middle;spacingTop=-1;spacingLeft=3;spacingRight=3;rotatable=0;labelPosition=right;points=[];portConstraint=eastwest;" vertex="1" parent="YmsPEhmeXx43-MYh7PNv-281">
          <mxGeometry y="42" width="178" height="8" as="geometry" />
        </mxCell>
        <mxCell id="YmsPEhmeXx43-MYh7PNv-283" value="&lt;span style=&quot;text-align: center; background-color: initial;&quot;&gt;+ transformData()&lt;/span&gt;" style="text;html=1;strokeColor=none;fillColor=none;align=left;verticalAlign=middle;spacingLeft=4;spacingRight=4;overflow=hidden;rotatable=0;points=[[0,0.5],[1,0.5]];portConstraint=eastwest;whiteSpace=wrap;" vertex="1" parent="YmsPEhmeXx43-MYh7PNv-281">
          <mxGeometry y="50" width="178" height="20" as="geometry" />
        </mxCell>
        <mxCell id="YmsPEhmeXx43-MYh7PNv-284" value="&lt;span style=&quot;text-align: center; background-color: initial;&quot;&gt;+ returnTransformedData()&lt;/span&gt;" style="text;html=1;strokeColor=none;fillColor=none;align=left;verticalAlign=middle;spacingLeft=4;spacingRight=4;overflow=hidden;rotatable=0;points=[[0,0.5],[1,0.5]];portConstraint=eastwest;whiteSpace=wrap;" vertex="1" parent="YmsPEhmeXx43-MYh7PNv-281">
          <mxGeometry y="70" width="178" height="20" as="geometry" />
        </mxCell>
        <mxCell id="Au5Fy73LcGvytUm_-_bz-92" style="edgeStyle=orthogonalEdgeStyle;rounded=0;orthogonalLoop=1;jettySize=auto;html=1;endArrow=none;endFill=0;" edge="1" parent="1" source="Au5Fy73LcGvytUm_-_bz-77" target="Au5Fy73LcGvytUm_-_bz-7">
          <mxGeometry relative="1" as="geometry">
            <Array as="points">
              <mxPoint x="-30" y="980" />
              <mxPoint x="-30" y="140" />
            </Array>
          </mxGeometry>
        </mxCell>
        <mxCell id="Au5Fy73LcGvytUm_-_bz-131" value="0..*" style="edgeLabel;html=1;align=center;verticalAlign=middle;resizable=0;points=[];" vertex="1" connectable="0" parent="Au5Fy73LcGvytUm_-_bz-92">
          <mxGeometry x="-0.976" y="1" relative="1" as="geometry">
            <mxPoint as="offset" />
          </mxGeometry>
        </mxCell>
        <mxCell id="Au5Fy73LcGvytUm_-_bz-77" value="&amp;lt;&amp;lt;root&amp;gt;&amp;gt;&lt;br&gt;&lt;div&gt;&lt;b&gt;Anonymize Process Controller&lt;/b&gt;&lt;br&gt;&lt;/div&gt;" style="swimlane;fontStyle=0;align=center;verticalAlign=top;childLayout=stackLayout;horizontal=1;startSize=42;horizontalStack=0;resizeParent=1;resizeParentMax=0;resizeLast=0;collapsible=0;marginBottom=0;html=1;whiteSpace=wrap;" vertex="1" parent="1">
          <mxGeometry x="-420" y="960" width="268" height="128" as="geometry" />
        </mxCell>
        <mxCell id="Au5Fy73LcGvytUm_-_bz-78" value="- anonymizeProcess Service: Anonymize Process  Service" style="text;html=1;strokeColor=none;fillColor=none;align=left;verticalAlign=middle;spacingLeft=4;spacingRight=4;overflow=hidden;rotatable=0;points=[[0,0.5],[1,0.5]];portConstraint=eastwest;whiteSpace=wrap;" vertex="1" parent="Au5Fy73LcGvytUm_-_bz-77">
          <mxGeometry y="42" width="268" height="38" as="geometry" />
        </mxCell>
        <mxCell id="Au5Fy73LcGvytUm_-_bz-80" value="" style="line;strokeWidth=1;fillColor=none;align=left;verticalAlign=middle;spacingTop=-1;spacingLeft=3;spacingRight=3;rotatable=0;labelPosition=right;points=[];portConstraint=eastwest;" vertex="1" parent="Au5Fy73LcGvytUm_-_bz-77">
          <mxGeometry y="80" width="268" height="8" as="geometry" />
        </mxCell>
        <mxCell id="Au5Fy73LcGvytUm_-_bz-81" value="&lt;span style=&quot;text-align: center; background-color: initial;&quot;&gt;+ runAnonymizeProcessService()&lt;/span&gt;" style="text;html=1;strokeColor=none;fillColor=none;align=left;verticalAlign=middle;spacingLeft=4;spacingRight=4;overflow=hidden;rotatable=0;points=[[0,0.5],[1,0.5]];portConstraint=eastwest;whiteSpace=wrap;" vertex="1" parent="Au5Fy73LcGvytUm_-_bz-77">
          <mxGeometry y="88" width="268" height="20" as="geometry" />
        </mxCell>
        <mxCell id="Au5Fy73LcGvytUm_-_bz-82" value="&lt;span style=&quot;text-align: center; background-color: initial;&quot;&gt;+ returnAnonymizedData()&lt;/span&gt;" style="text;html=1;strokeColor=none;fillColor=none;align=left;verticalAlign=middle;spacingLeft=4;spacingRight=4;overflow=hidden;rotatable=0;points=[[0,0.5],[1,0.5]];portConstraint=eastwest;whiteSpace=wrap;" vertex="1" parent="Au5Fy73LcGvytUm_-_bz-77">
          <mxGeometry y="108" width="268" height="20" as="geometry" />
        </mxCell>
        <mxCell id="Au5Fy73LcGvytUm_-_bz-83" style="edgeStyle=orthogonalEdgeStyle;rounded=0;orthogonalLoop=1;jettySize=auto;html=1;endArrow=diamondThin;endFill=1;" edge="1" parent="1" source="Au5Fy73LcGvytUm_-_bz-84" target="Au5Fy73LcGvytUm_-_bz-77">
          <mxGeometry relative="1" as="geometry">
            <Array as="points">
              <mxPoint x="-476" y="1010" />
              <mxPoint x="-476" y="980" />
            </Array>
          </mxGeometry>
        </mxCell>
        <mxCell id="Au5Fy73LcGvytUm_-_bz-123" value="1" style="edgeLabel;html=1;align=center;verticalAlign=middle;resizable=0;points=[];" vertex="1" connectable="0" parent="Au5Fy73LcGvytUm_-_bz-83">
          <mxGeometry x="0.7518" y="-3" relative="1" as="geometry">
            <mxPoint x="2" y="-11" as="offset" />
          </mxGeometry>
        </mxCell>
        <mxCell id="Au5Fy73LcGvytUm_-_bz-124" value="1" style="edgeLabel;html=1;align=center;verticalAlign=middle;resizable=0;points=[];" vertex="1" connectable="0" parent="Au5Fy73LcGvytUm_-_bz-83">
          <mxGeometry x="-0.8558" y="1" relative="1" as="geometry">
            <mxPoint y="-9" as="offset" />
          </mxGeometry>
        </mxCell>
        <mxCell id="Au5Fy73LcGvytUm_-_bz-84" value="&amp;lt;&amp;lt;service&amp;gt;&amp;gt;&lt;br&gt;&lt;div&gt;&lt;b&gt;Anonymize Process  Service&lt;/b&gt;&lt;br&gt;&lt;/div&gt;" style="swimlane;fontStyle=0;align=center;verticalAlign=top;childLayout=stackLayout;horizontal=1;startSize=42;horizontalStack=0;resizeParent=1;resizeParentMax=0;resizeLast=0;collapsible=0;marginBottom=0;html=1;whiteSpace=wrap;" vertex="1" parent="1">
          <mxGeometry x="-710" y="995" width="178" height="90" as="geometry" />
        </mxCell>
        <mxCell id="Au5Fy73LcGvytUm_-_bz-85" value="" style="line;strokeWidth=1;fillColor=none;align=left;verticalAlign=middle;spacingTop=-1;spacingLeft=3;spacingRight=3;rotatable=0;labelPosition=right;points=[];portConstraint=eastwest;" vertex="1" parent="Au5Fy73LcGvytUm_-_bz-84">
          <mxGeometry y="42" width="178" height="8" as="geometry" />
        </mxCell>
        <mxCell id="Au5Fy73LcGvytUm_-_bz-86" value="&lt;span style=&quot;text-align: center; background-color: initial;&quot;&gt;+ anonymizeD&lt;/span&gt;&lt;span style=&quot;background-color: initial; text-align: center;&quot;&gt;ata()&lt;/span&gt;" style="text;html=1;strokeColor=none;fillColor=none;align=left;verticalAlign=middle;spacingLeft=4;spacingRight=4;overflow=hidden;rotatable=0;points=[[0,0.5],[1,0.5]];portConstraint=eastwest;whiteSpace=wrap;" vertex="1" parent="Au5Fy73LcGvytUm_-_bz-84">
          <mxGeometry y="50" width="178" height="20" as="geometry" />
        </mxCell>
        <mxCell id="Au5Fy73LcGvytUm_-_bz-88" value="&lt;span style=&quot;text-align: center; background-color: initial;&quot;&gt;+ returnAnonymizedData()&lt;/span&gt;" style="text;html=1;strokeColor=none;fillColor=none;align=left;verticalAlign=middle;spacingLeft=4;spacingRight=4;overflow=hidden;rotatable=0;points=[[0,0.5],[1,0.5]];portConstraint=eastwest;whiteSpace=wrap;" vertex="1" parent="Au5Fy73LcGvytUm_-_bz-84">
          <mxGeometry y="70" width="178" height="20" as="geometry" />
        </mxCell>
        <mxCell id="YmsPEhmeXx43-MYh7PNv-301" style="edgeStyle=orthogonalEdgeStyle;rounded=0;orthogonalLoop=1;jettySize=auto;html=1;entryX=0.5;entryY=1;entryDx=0;entryDy=0;" edge="1" parent="1" target="Au5Fy73LcGvytUm_-_bz-7">
          <mxGeometry relative="1" as="geometry">
            <mxPoint x="224" y="567" as="sourcePoint" />
            <Array as="points">
              <mxPoint x="225" y="567" />
              <mxPoint x="225" y="523" />
              <mxPoint x="224" y="523" />
            </Array>
          </mxGeometry>
        </mxCell>
        <mxCell id="Au5Fy73LcGvytUm_-_bz-111" value="1..*" style="edgeLabel;html=1;align=center;verticalAlign=middle;resizable=0;points=[];" vertex="1" connectable="0" parent="YmsPEhmeXx43-MYh7PNv-301">
          <mxGeometry x="-0.9321" relative="1" as="geometry">
            <mxPoint x="15" y="2" as="offset" />
          </mxGeometry>
        </mxCell>
        <mxCell id="YmsPEhmeXx43-MYh7PNv-285" value="&amp;lt;&amp;lt;entity&amp;gt;&amp;gt;&lt;br&gt;&lt;div&gt;&lt;b&gt;ETL Description Entity&lt;/b&gt;&lt;/div&gt;" style="swimlane;fontStyle=0;align=center;verticalAlign=top;childLayout=stackLayout;horizontal=1;startSize=42;horizontalStack=0;resizeParent=1;resizeParentMax=0;resizeLast=0;collapsible=0;marginBottom=0;html=1;whiteSpace=wrap;" vertex="1" parent="1">
          <mxGeometry x="90" y="580" width="268" height="190" as="geometry" />
        </mxCell>
        <mxCell id="YmsPEhmeXx43-MYh7PNv-286" value="+ extractionParameters: List&amp;lt;String&amp;gt;" style="text;html=1;strokeColor=none;fillColor=none;align=left;verticalAlign=middle;spacingLeft=4;spacingRight=4;overflow=hidden;rotatable=0;points=[[0,0.5],[1,0.5]];portConstraint=eastwest;whiteSpace=wrap;" vertex="1" parent="YmsPEhmeXx43-MYh7PNv-285">
          <mxGeometry y="42" width="268" height="28" as="geometry" />
        </mxCell>
        <mxCell id="YmsPEhmeXx43-MYh7PNv-291" value="+ cleansedParameters: List&amp;lt;String&amp;gt;" style="text;html=1;strokeColor=none;fillColor=none;align=left;verticalAlign=middle;spacingLeft=4;spacingRight=4;overflow=hidden;rotatable=0;points=[[0,0.5],[1,0.5]];portConstraint=eastwest;whiteSpace=wrap;" vertex="1" parent="YmsPEhmeXx43-MYh7PNv-285">
          <mxGeometry y="70" width="268" height="28" as="geometry" />
        </mxCell>
        <mxCell id="YmsPEhmeXx43-MYh7PNv-292" value="+ anonymizationParameters: List&amp;lt;String&amp;gt;" style="text;html=1;strokeColor=none;fillColor=none;align=left;verticalAlign=middle;spacingLeft=4;spacingRight=4;overflow=hidden;rotatable=0;points=[[0,0.5],[1,0.5]];portConstraint=eastwest;whiteSpace=wrap;" vertex="1" parent="YmsPEhmeXx43-MYh7PNv-285">
          <mxGeometry y="98" width="268" height="28" as="geometry" />
        </mxCell>
        <mxCell id="YmsPEhmeXx43-MYh7PNv-293" value="+ transformationParameters: List&amp;lt;String&amp;gt;" style="text;html=1;strokeColor=none;fillColor=none;align=left;verticalAlign=middle;spacingLeft=4;spacingRight=4;overflow=hidden;rotatable=0;points=[[0,0.5],[1,0.5]];portConstraint=eastwest;whiteSpace=wrap;" vertex="1" parent="YmsPEhmeXx43-MYh7PNv-285">
          <mxGeometry y="126" width="268" height="28" as="geometry" />
        </mxCell>
        <mxCell id="YmsPEhmeXx43-MYh7PNv-294" value="+ mergeParameters: List&amp;lt;String&amp;gt;" style="text;html=1;strokeColor=none;fillColor=none;align=left;verticalAlign=middle;spacingLeft=4;spacingRight=4;overflow=hidden;rotatable=0;points=[[0,0.5],[1,0.5]];portConstraint=eastwest;whiteSpace=wrap;" vertex="1" parent="YmsPEhmeXx43-MYh7PNv-285">
          <mxGeometry y="154" width="268" height="28" as="geometry" />
        </mxCell>
        <mxCell id="YmsPEhmeXx43-MYh7PNv-287" value="" style="line;strokeWidth=1;fillColor=none;align=left;verticalAlign=middle;spacingTop=-1;spacingLeft=3;spacingRight=3;rotatable=0;labelPosition=right;points=[];portConstraint=eastwest;" vertex="1" parent="YmsPEhmeXx43-MYh7PNv-285">
          <mxGeometry y="182" width="268" height="8" as="geometry" />
        </mxCell>
        <mxCell id="nyeCLd6V4OY8-Zb01Z_Q-41" value="&amp;lt;&amp;lt;Service&amp;gt;&amp;gt;&lt;br&gt;&lt;span style=&quot;font-weight: 700;&quot;&gt;RDBMS/S3 config service&lt;/span&gt;&lt;br&gt;&lt;div&gt;&lt;br&gt;&lt;/div&gt;" style="swimlane;fontStyle=0;align=center;verticalAlign=top;childLayout=stackLayout;horizontal=1;startSize=42;horizontalStack=0;resizeParent=1;resizeParentMax=0;resizeLast=0;collapsible=0;marginBottom=0;html=1;whiteSpace=wrap;" vertex="1" parent="1">
          <mxGeometry x="116" y="1272" width="322" height="90" as="geometry" />
        </mxCell>
        <mxCell id="nyeCLd6V4OY8-Zb01Z_Q-43" value="" style="line;strokeWidth=1;fillColor=none;align=left;verticalAlign=middle;spacingTop=-1;spacingLeft=3;spacingRight=3;rotatable=0;labelPosition=right;points=[];portConstraint=eastwest;" vertex="1" parent="nyeCLd6V4OY8-Zb01Z_Q-41">
          <mxGeometry y="42" width="322" height="8" as="geometry" />
        </mxCell>
        <mxCell id="nyeCLd6V4OY8-Zb01Z_Q-44" value="- createConnection&lt;span style=&quot;font-family: Arial, sans-serif; font-size: 14.6667px; white-space-collapse: preserve;&quot;&gt;()&lt;/span&gt;" style="text;html=1;strokeColor=none;fillColor=none;align=left;verticalAlign=middle;spacingLeft=4;spacingRight=4;overflow=hidden;rotatable=0;points=[[0,0.5],[1,0.5]];portConstraint=eastwest;whiteSpace=wrap;" vertex="1" parent="nyeCLd6V4OY8-Zb01Z_Q-41">
          <mxGeometry y="50" width="322" height="20" as="geometry" />
        </mxCell>
        <mxCell id="nyeCLd6V4OY8-Zb01Z_Q-45" value="- getConnectionStatus&lt;span style=&quot;font-family: Arial, sans-serif; font-size: 14.6667px; white-space-collapse: preserve;&quot;&gt;()&lt;/span&gt;" style="text;html=1;strokeColor=none;fillColor=none;align=left;verticalAlign=middle;spacingLeft=4;spacingRight=4;overflow=hidden;rotatable=0;points=[[0,0.5],[1,0.5]];portConstraint=eastwest;whiteSpace=wrap;" vertex="1" parent="nyeCLd6V4OY8-Zb01Z_Q-41">
          <mxGeometry y="70" width="322" height="20" as="geometry" />
        </mxCell>
        <mxCell id="Au5Fy73LcGvytUm_-_bz-91" style="edgeStyle=orthogonalEdgeStyle;rounded=0;orthogonalLoop=1;jettySize=auto;html=1;endArrow=none;endFill=0;" edge="1" parent="1" source="Au5Fy73LcGvytUm_-_bz-64" target="Au5Fy73LcGvytUm_-_bz-7">
          <mxGeometry relative="1" as="geometry">
            <Array as="points">
              <mxPoint x="-30" y="780" />
              <mxPoint x="-30" y="140" />
            </Array>
          </mxGeometry>
        </mxCell>
        <mxCell id="Au5Fy73LcGvytUm_-_bz-132" value="0..*" style="edgeLabel;html=1;align=center;verticalAlign=middle;resizable=0;points=[];" vertex="1" connectable="0" parent="Au5Fy73LcGvytUm_-_bz-91">
          <mxGeometry x="-0.9596" y="3" relative="1" as="geometry">
            <mxPoint as="offset" />
          </mxGeometry>
        </mxCell>
        <mxCell id="Au5Fy73LcGvytUm_-_bz-137" value="1" style="edgeLabel;html=1;align=center;verticalAlign=middle;resizable=0;points=[];" vertex="1" connectable="0" parent="Au5Fy73LcGvytUm_-_bz-91">
          <mxGeometry x="0.964" relative="1" as="geometry">
            <mxPoint as="offset" />
          </mxGeometry>
        </mxCell>
        <mxCell id="Au5Fy73LcGvytUm_-_bz-113" style="edgeStyle=orthogonalEdgeStyle;rounded=0;orthogonalLoop=1;jettySize=auto;html=1;endArrow=block;endFill=0;" edge="1" parent="1" source="Au5Fy73LcGvytUm_-_bz-95" target="YmsPEhmeXx43-MYh7PNv-1">
          <mxGeometry relative="1" as="geometry" />
        </mxCell>
        <mxCell id="Au5Fy73LcGvytUm_-_bz-95" value="&amp;lt;&amp;lt;interface&amp;gt;&amp;gt;&lt;br&gt;&lt;b&gt;User Actions&lt;/b&gt;" style="swimlane;fontStyle=0;align=center;verticalAlign=top;childLayout=stackLayout;horizontal=1;startSize=42;horizontalStack=0;resizeParent=1;resizeParentMax=0;resizeLast=0;collapsible=0;marginBottom=0;html=1;whiteSpace=wrap;" vertex="1" parent="1">
          <mxGeometry x="800" y="-270" width="167" height="250" as="geometry" />
        </mxCell>
        <mxCell id="Au5Fy73LcGvytUm_-_bz-100" value="" style="line;strokeWidth=1;fillColor=none;align=left;verticalAlign=middle;spacingTop=-1;spacingLeft=3;spacingRight=3;rotatable=0;labelPosition=right;points=[];portConstraint=eastwest;" vertex="1" parent="Au5Fy73LcGvytUm_-_bz-95">
          <mxGeometry y="42" width="167" height="8" as="geometry" />
        </mxCell>
        <mxCell id="Au5Fy73LcGvytUm_-_bz-101" value="- sendConfiigFile()" style="text;html=1;strokeColor=none;fillColor=none;align=left;verticalAlign=middle;spacingLeft=4;spacingRight=4;overflow=hidden;rotatable=0;points=[[0,0.5],[1,0.5]];portConstraint=eastwest;whiteSpace=wrap;" vertex="1" parent="Au5Fy73LcGvytUm_-_bz-95">
          <mxGeometry y="50" width="167" height="20" as="geometry" />
        </mxCell>
        <mxCell id="Au5Fy73LcGvytUm_-_bz-102" value="- checkConnectionStatus()" style="text;html=1;strokeColor=none;fillColor=none;align=left;verticalAlign=middle;spacingLeft=4;spacingRight=4;overflow=hidden;rotatable=0;points=[[0,0.5],[1,0.5]];portConstraint=eastwest;whiteSpace=wrap;" vertex="1" parent="Au5Fy73LcGvytUm_-_bz-95">
          <mxGeometry y="70" width="167" height="20" as="geometry" />
        </mxCell>
        <mxCell id="Au5Fy73LcGvytUm_-_bz-103" value="- sendDescriptionFile()" style="text;html=1;strokeColor=none;fillColor=none;align=left;verticalAlign=middle;spacingLeft=4;spacingRight=4;overflow=hidden;rotatable=0;points=[[0,0.5],[1,0.5]];portConstraint=eastwest;whiteSpace=wrap;" vertex="1" parent="Au5Fy73LcGvytUm_-_bz-95">
          <mxGeometry y="90" width="167" height="20" as="geometry" />
        </mxCell>
        <mxCell id="Au5Fy73LcGvytUm_-_bz-104" value="- getTestDataSet()" style="text;html=1;strokeColor=none;fillColor=none;align=left;verticalAlign=middle;spacingLeft=4;spacingRight=4;overflow=hidden;rotatable=0;points=[[0,0.5],[1,0.5]];portConstraint=eastwest;whiteSpace=wrap;" vertex="1" parent="Au5Fy73LcGvytUm_-_bz-95">
          <mxGeometry y="110" width="167" height="20" as="geometry" />
        </mxCell>
        <mxCell id="Au5Fy73LcGvytUm_-_bz-105" value="- sendTerminateRequest()" style="text;html=1;strokeColor=none;fillColor=none;align=left;verticalAlign=middle;spacingLeft=4;spacingRight=4;overflow=hidden;rotatable=0;points=[[0,0.5],[1,0.5]];portConstraint=eastwest;whiteSpace=wrap;" vertex="1" parent="Au5Fy73LcGvytUm_-_bz-95">
          <mxGeometry y="130" width="167" height="20" as="geometry" />
        </mxCell>
        <mxCell id="Au5Fy73LcGvytUm_-_bz-106" value="- getProcessStatus()" style="text;html=1;strokeColor=none;fillColor=none;align=left;verticalAlign=middle;spacingLeft=4;spacingRight=4;overflow=hidden;rotatable=0;points=[[0,0.5],[1,0.5]];portConstraint=eastwest;whiteSpace=wrap;" vertex="1" parent="Au5Fy73LcGvytUm_-_bz-95">
          <mxGeometry y="150" width="167" height="20" as="geometry" />
        </mxCell>
        <mxCell id="Au5Fy73LcGvytUm_-_bz-107" value="- getLogs()" style="text;html=1;strokeColor=none;fillColor=none;align=left;verticalAlign=middle;spacingLeft=4;spacingRight=4;overflow=hidden;rotatable=0;points=[[0,0.5],[1,0.5]];portConstraint=eastwest;whiteSpace=wrap;" vertex="1" parent="Au5Fy73LcGvytUm_-_bz-95">
          <mxGeometry y="170" width="167" height="20" as="geometry" />
        </mxCell>
        <mxCell id="Au5Fy73LcGvytUm_-_bz-108" value="- runETLProcess()" style="text;html=1;strokeColor=none;fillColor=none;align=left;verticalAlign=middle;spacingLeft=4;spacingRight=4;overflow=hidden;rotatable=0;points=[[0,0.5],[1,0.5]];portConstraint=eastwest;whiteSpace=wrap;" vertex="1" parent="Au5Fy73LcGvytUm_-_bz-95">
          <mxGeometry y="190" width="167" height="20" as="geometry" />
        </mxCell>
        <mxCell id="Au5Fy73LcGvytUm_-_bz-109" value="- getStatus()" style="text;html=1;strokeColor=none;fillColor=none;align=left;verticalAlign=middle;spacingLeft=4;spacingRight=4;overflow=hidden;rotatable=0;points=[[0,0.5],[1,0.5]];portConstraint=eastwest;whiteSpace=wrap;" vertex="1" parent="Au5Fy73LcGvytUm_-_bz-95">
          <mxGeometry y="210" width="167" height="20" as="geometry" />
        </mxCell>
        <mxCell id="Au5Fy73LcGvytUm_-_bz-110" value="- getPreviousDataset()" style="text;html=1;strokeColor=none;fillColor=none;align=left;verticalAlign=middle;spacingLeft=4;spacingRight=4;overflow=hidden;rotatable=0;points=[[0,0.5],[1,0.5]];portConstraint=eastwest;whiteSpace=wrap;" vertex="1" parent="Au5Fy73LcGvytUm_-_bz-95">
          <mxGeometry y="230" width="167" height="20" as="geometry" />
        </mxCell>
        <mxCell id="YmsPEhmeXx43-MYh7PNv-303" value="&amp;lt;&amp;lt;interface&amp;gt;&amp;gt;&lt;br&gt;&lt;b&gt;Admin Actions&lt;/b&gt;&lt;br&gt;&lt;div&gt;&lt;br&gt;&lt;/div&gt;" style="swimlane;fontStyle=0;align=center;verticalAlign=top;childLayout=stackLayout;horizontal=1;startSize=42;horizontalStack=0;resizeParent=1;resizeParentMax=0;resizeLast=0;collapsible=0;marginBottom=0;html=1;whiteSpace=wrap;" vertex="1" parent="1">
          <mxGeometry x="1593" y="-71" width="140" height="70" as="geometry" />
        </mxCell>
        <mxCell id="YmsPEhmeXx43-MYh7PNv-307" value="" style="line;strokeWidth=1;fillColor=none;align=left;verticalAlign=middle;spacingTop=-1;spacingLeft=3;spacingRight=3;rotatable=0;labelPosition=right;points=[];portConstraint=eastwest;" vertex="1" parent="YmsPEhmeXx43-MYh7PNv-303">
          <mxGeometry y="42" width="140" height="8" as="geometry" />
        </mxCell>
        <mxCell id="YmsPEhmeXx43-MYh7PNv-308" value="-&amp;nbsp;&lt;span style=&quot;font-family: Arial, sans-serif; font-size: 14.6667px; white-space-collapse: preserve;&quot;&gt;createAccount()&lt;/span&gt;" style="text;html=1;strokeColor=none;fillColor=none;align=left;verticalAlign=middle;spacingLeft=4;spacingRight=4;overflow=hidden;rotatable=0;points=[[0,0.5],[1,0.5]];portConstraint=eastwest;whiteSpace=wrap;" vertex="1" parent="YmsPEhmeXx43-MYh7PNv-303">
          <mxGeometry y="50" width="140" height="20" as="geometry" />
        </mxCell>
        <mxCell id="Au5Fy73LcGvytUm_-_bz-114" style="edgeStyle=orthogonalEdgeStyle;rounded=0;orthogonalLoop=1;jettySize=auto;html=1;endArrow=block;endFill=0;dashed=1;" edge="1" parent="1" source="Au5Fy73LcGvytUm_-_bz-1" target="Au5Fy73LcGvytUm_-_bz-95">
          <mxGeometry relative="1" as="geometry">
            <Array as="points">
              <mxPoint x="590" y="-240" />
              <mxPoint x="590" y="-240" />
            </Array>
          </mxGeometry>
        </mxCell>
        <mxCell id="YmsPEhmeXx43-MYh7PNv-312" style="edgeStyle=orthogonalEdgeStyle;rounded=0;orthogonalLoop=1;jettySize=auto;html=1;entryX=0.525;entryY=0.898;entryDx=0;entryDy=0;entryPerimeter=0;endArrow=block;endFill=0;" edge="1" parent="1" source="YmsPEhmeXx43-MYh7PNv-303" target="YmsPEhmeXx43-MYh7PNv-21">
          <mxGeometry relative="1" as="geometry" />
        </mxCell>
        <mxCell id="YmsPEhmeXx43-MYh7PNv-314" style="edgeStyle=orthogonalEdgeStyle;rounded=0;orthogonalLoop=1;jettySize=auto;html=1;entryX=0.475;entryY=1.048;entryDx=0;entryDy=0;entryPerimeter=0;endArrow=diamondThin;endFill=1;" edge="1" parent="1" source="YmsPEhmeXx43-MYh7PNv-190" target="YmsPEhmeXx43-MYh7PNv-57">
          <mxGeometry relative="1" as="geometry">
            <Array as="points">
              <mxPoint x="765" y="407" />
            </Array>
          </mxGeometry>
        </mxCell>
        <mxCell id="Au5Fy73LcGvytUm_-_bz-159" value="1" style="edgeLabel;html=1;align=center;verticalAlign=middle;resizable=0;points=[];" vertex="1" connectable="0" parent="YmsPEhmeXx43-MYh7PNv-314">
          <mxGeometry x="0.6528" y="2" relative="1" as="geometry">
            <mxPoint x="7" y="3" as="offset" />
          </mxGeometry>
        </mxCell>
        <mxCell id="Au5Fy73LcGvytUm_-_bz-160" value="1" style="edgeLabel;html=1;align=center;verticalAlign=middle;resizable=0;points=[];" vertex="1" connectable="0" parent="YmsPEhmeXx43-MYh7PNv-314">
          <mxGeometry x="-0.7083" y="-2" relative="1" as="geometry">
            <mxPoint x="3" as="offset" />
          </mxGeometry>
        </mxCell>
        <mxCell id="nyeCLd6V4OY8-Zb01Z_Q-54" value="" style="endArrow=none;html=1;rounded=0;align=center;verticalAlign=top;endFill=0;labelBackgroundColor=none;endSize=6;entryX=0.565;entryY=0.009;entryDx=0;entryDy=0;entryPerimeter=0;" edge="1" parent="1" source="YmsPEhmeXx43-MYh7PNv-190" target="nyeCLd6V4OY8-Zb01Z_Q-4">
          <mxGeometry relative="1" as="geometry">
            <mxPoint x="750.5218978102189" y="780" as="targetPoint" />
            <mxPoint x="763.0036496350363" y="666" as="sourcePoint" />
            <Array as="points" />
          </mxGeometry>
        </mxCell>
        <mxCell id="nyeCLd6V4OY8-Zb01Z_Q-63" value="1" style="text;html=1;align=center;verticalAlign=middle;resizable=0;points=[];autosize=1;strokeColor=none;fillColor=none;" vertex="1" parent="1">
          <mxGeometry x="754" y="1141" width="25" height="26" as="geometry" />
        </mxCell>
        <mxCell id="nyeCLd6V4OY8-Zb01Z_Q-64" value="1" style="text;html=1;align=center;verticalAlign=middle;resizable=0;points=[];autosize=1;strokeColor=none;fillColor=none;" vertex="1" parent="1">
          <mxGeometry x="752" y="1216" width="25" height="26" as="geometry" />
        </mxCell>
        <mxCell id="nyeCLd6V4OY8-Zb01Z_Q-66" style="edgeStyle=orthogonalEdgeStyle;rounded=0;orthogonalLoop=1;jettySize=auto;html=1;entryX=0.46;entryY=0.011;entryDx=0;entryDy=0;entryPerimeter=0;startArrow=diamondThin;startFill=1;endArrow=none;endFill=0;" edge="1" parent="1" source="nyeCLd6V4OY8-Zb01Z_Q-34" target="nyeCLd6V4OY8-Zb01Z_Q-41">
          <mxGeometry relative="1" as="geometry" />
        </mxCell>
        <mxCell id="nyeCLd6V4OY8-Zb01Z_Q-67" value="1" style="text;html=1;align=center;verticalAlign=middle;resizable=0;points=[];autosize=1;strokeColor=none;fillColor=none;" vertex="1" parent="1">
          <mxGeometry x="273" y="1138" width="25" height="26" as="geometry" />
        </mxCell>
        <mxCell id="nyeCLd6V4OY8-Zb01Z_Q-68" value="1" style="text;html=1;align=center;verticalAlign=middle;resizable=0;points=[];autosize=1;strokeColor=none;fillColor=none;" vertex="1" parent="1">
          <mxGeometry x="275" y="1230" width="25" height="26" as="geometry" />
        </mxCell>
        <mxCell id="nyeCLd6V4OY8-Zb01Z_Q-69" value="1" style="text;html=1;align=center;verticalAlign=middle;resizable=0;points=[];autosize=1;strokeColor=none;fillColor=none;" vertex="1" parent="1">
          <mxGeometry x="436" y="1009" width="25" height="26" as="geometry" />
        </mxCell>
        <mxCell id="nyeCLd6V4OY8-Zb01Z_Q-70" value="1" style="text;html=1;align=center;verticalAlign=middle;resizable=0;points=[];autosize=1;strokeColor=none;fillColor=none;" vertex="1" parent="1">
          <mxGeometry x="539" y="1009" width="25" height="26" as="geometry" />
        </mxCell>
        <mxCell id="nyeCLd6V4OY8-Zb01Z_Q-71" value="1" style="text;html=1;align=center;verticalAlign=middle;resizable=0;points=[];autosize=1;strokeColor=none;fillColor=none;" vertex="1" parent="1">
          <mxGeometry x="779" y="888" width="25" height="26" as="geometry" />
        </mxCell>
        <mxCell id="nyeCLd6V4OY8-Zb01Z_Q-72" value="1" style="text;html=1;align=center;verticalAlign=middle;resizable=0;points=[];autosize=1;strokeColor=none;fillColor=none;" vertex="1" parent="1">
          <mxGeometry x="775" y="934" width="25" height="26" as="geometry" />
        </mxCell>
        <mxCell id="nyeCLd6V4OY8-Zb01Z_Q-73" value="1" style="text;html=1;align=center;verticalAlign=middle;resizable=0;points=[];autosize=1;strokeColor=none;fillColor=none;" vertex="1" parent="1">
          <mxGeometry x="786" y="671" width="25" height="26" as="geometry" />
        </mxCell>
        <mxCell id="nyeCLd6V4OY8-Zb01Z_Q-74" value="1" style="text;html=1;align=center;verticalAlign=middle;resizable=0;points=[];autosize=1;strokeColor=none;fillColor=none;" vertex="1" parent="1">
          <mxGeometry x="786" y="736" width="25" height="26" as="geometry" />
        </mxCell>
      </root>
    </mxGraphModel>
  </diagram>
</mxfile>
